<?xml version="1.0" encoding="UTF-8"?>
<svg viewBox="0 0 1000 400" xmlns="http://www.w3.org/2000/svg" xmlns:xlink="http://www.w3.org/1999/xlink">
 <defs>
  <filter id="dr"/>
  <linearGradient id="d">
   <stop stop-color="#999" offset="0"/>
   <stop stop-color="#999" stop-opacity="0" offset="1"/>
  </linearGradient>
  <linearGradient id="y">
   <stop stop-color="#666" offset="0"/>
   <stop stop-color="#666" stop-opacity="0" offset="1"/>
  </linearGradient>
  <linearGradient id="r">
   <stop stop-color="#f7f7f7" stop-opacity=".728" offset="0"/>
   <stop stop-color="#c4c4c4" stop-opacity="0" offset="1"/>
  </linearGradient>
  <linearGradient id="s">
   <stop stop-color="#f7f7f7" stop-opacity=".728" offset="0"/>
   <stop stop-color="#c4c4c4" stop-opacity=".208" offset="1"/>
  </linearGradient>
  <linearGradient id="t">
   <stop stop-color="#fff" offset="0"/>
   <stop stop-color="#cfcfcf" offset="1"/>
  </linearGradient>
  <linearGradient id="g">
   <stop stop-color="#f7f7f7" offset="0"/>
   <stop stop-color="#c4c4c4" stop-opacity="0" offset="1"/>
  </linearGradient>
  <linearGradient id="h">
   <stop stop-color="#797979" offset="0"/>
   <stop stop-color="#b9b9b9" offset="1"/>
  </linearGradient>
  <linearGradient id="a">
   <stop stop-color="#ccc" offset="0"/>
   <stop stop-color="#ccc" stop-opacity="0" offset="1"/>
  </linearGradient>
  <linearGradient id="u">
   <stop stop-color="#ececec" offset="0"/>
   <stop stop-color="#ececec" stop-opacity="0" offset="1"/>
  </linearGradient>
  <linearGradient id="l">
   <stop offset="0"/>
   <stop stop-color="#b9b9b9" offset="1"/>
  </linearGradient>
  <linearGradient id="m">
   <stop stop-color="#ff7f2a" offset="0"/>
   <stop stop-color="#ffd65c" offset="1"/>
  </linearGradient>
  <linearGradient id="n">
   <stop stop-color="#969696" stop-opacity=".64516" offset="0"/>
   <stop stop-color="#6d6d6d" stop-opacity=".53226" offset="1"/>
  </linearGradient>
  <linearGradient id="o">
   <stop stop-color="#888" stop-opacity=".70161" offset="0"/>
   <stop stop-color="#040404" stop-opacity=".62097" offset="1"/>
  </linearGradient>
  <linearGradient id="p">
   <stop stop-color="#ccc" stop-opacity=".71774" offset="0"/>
   <stop stop-color="#ccc" stop-opacity="0" offset="1"/>
  </linearGradient>
  <linearGradient id="q">
   <stop stop-color="#ccc" stop-opacity=".60484" offset="0"/>
   <stop stop-color="#ccc" stop-opacity="0" offset="1"/>
  </linearGradient>
  <linearGradient id="v">
   <stop stop-color="#b3b3b3" offset="0"/>
   <stop stop-color="#b3b3b3" stop-opacity="0" offset="1"/>
  </linearGradient>
  <linearGradient id="c">
   <stop stop-color="#e6e6e6" offset="0"/>
   <stop stop-color="#e6e6e6" stop-opacity="0" offset="1"/>
  </linearGradient>
  <linearGradient id="b">
   <stop stop-color="#737373" offset="0"/>
   <stop stop-color="#2f2f2f" offset="1"/>
  </linearGradient>
  <linearGradient id="w">
   <stop stop-color="#ccc" offset="0"/>
   <stop stop-color="#ccc" stop-opacity=".52536" offset="1"/>
  </linearGradient>
  <linearGradient id="x">
   <stop stop-color="#e6e6e6" stop-opacity=".89516" offset="0"/>
   <stop stop-color="#e6e6e6" stop-opacity="0" offset="1"/>
  </linearGradient>
  <linearGradient id="f">
   <stop stop-color="#f2f2f2" stop-opacity=".81452" offset="0"/>
   <stop stop-color="#f2f2f2" stop-opacity=".00362" offset="1"/>
  </linearGradient>
  <linearGradient id="i">
   <stop stop-color="#f2f2f2" offset="0"/>
   <stop stop-color="#f2f2f2" stop-opacity="0" offset="1"/>
  </linearGradient>
  <linearGradient id="e">
   <stop stop-color="#f7f7f7" offset="0"/>
   <stop stop-color="#c4c4c4" offset="1"/>
  </linearGradient>
  <linearGradient id="z">
   <stop stop-color="#e6e6e6" stop-opacity=".80645" offset="0"/>
   <stop stop-color="#e6e6e6" stop-opacity=".36594" offset="1"/>
  </linearGradient>
  <linearGradient id="j">
   <stop stop-color="#e6e6e6" stop-opacity=".8871" offset="0"/>
   <stop stop-color="#e6e6e6" stop-opacity="0" offset="1"/>
  </linearGradient>
  <linearGradient id="k">
   <stop stop-color="#e4e4e4" offset="0"/>
   <stop stop-color="#e4e4e4" stop-opacity="0" offset="1"/>
  </linearGradient>
  <linearGradient id="do" x1="402.67" x2="383.62" y1="230.91" y2="212.95" gradientUnits="userSpaceOnUse">
   <stop stop-color="#848484" stop-opacity=".71774" offset="0"/>
   <stop stop-opacity="0" offset="1"/>
  </linearGradient>
  <linearGradient id="dg" x1="51.685" x2="71.631" y1="359.16" y2="358.28" gradientUnits="userSpaceOnUse">
   <stop stop-color="#b4b4b4" offset="0"/>
   <stop stop-color="#b4b4b4" stop-opacity="0" offset="1"/>
  </linearGradient>
  <linearGradient id="cw" x1="943.36" x2="968.25" y1="355" y2="410.5" gradientUnits="userSpaceOnUse" spreadMethod="reflect">
   <stop stop-color="#ccc" stop-opacity=".82971" offset="0"/>
   <stop stop-color="#ccc" stop-opacity="0" offset="1"/>
  </linearGradient>
  <linearGradient id="ck" x1="790.63" x2="663.36" y1="273.6" y2="278.71" gradientUnits="userSpaceOnUse">
   <stop stop-color="#fff" offset="0"/>
   <stop stop-color="#ececec" stop-opacity=".42765" offset="1"/>
  </linearGradient>
  <linearGradient id="cj" x1="647.17" x2="648.53" y1="273.77" y2="274.55" gradientUnits="userSpaceOnUse" spreadMethod="reflect">
   <stop stop-color="#c4c4c4" offset="0"/>
   <stop stop-color="#efefef" offset="1"/>
  </linearGradient>
  <linearGradient id="ci" x1="646.69" x2="666" y1="250.43" y2="246.52" gradientUnits="userSpaceOnUse">
   <stop stop-color="#f7f7f7" stop-opacity=".50806" offset="0"/>
   <stop stop-color="#fff" offset="1"/>
  </linearGradient>
  <linearGradient id="ch" x1="656.72" x2="667.77" y1="270.69" y2="256.59" gradientUnits="userSpaceOnUse">
   <stop stop-color="#f7f7f7" offset="0"/>
   <stop stop-color="#a7a7a7" offset="1"/>
  </linearGradient>
  <linearGradient id="dq" x1="275.97" x2="295.26" y1="458.81" y2="497.39" gradientUnits="userSpaceOnUse" xlink:href="#a"/>
  <linearGradient id="dp" x1="108.37" x2="96.84" y1="412.88" y2="364.01" gradientUnits="userSpaceOnUse" xlink:href="#b"/>
  <linearGradient id="dn" x1="119.6" x2="185.99" y1="410.69" y2="457.17" gradientUnits="userSpaceOnUse" xlink:href="#p"/>
  <linearGradient id="dm" x1="831.46" x2="817.89" y1="246.54" y2="249.69" gradientUnits="userSpaceOnUse" xlink:href="#o"/>
  <linearGradient id="dl" x1="211.5" x2="211.37" y1="380.64" y2="374.83" gradientUnits="userSpaceOnUse" xlink:href="#b"/>
  <linearGradient id="dk" x1="529.33" x2="443.42" y1="271.12" y2="293.84" gradientUnits="userSpaceOnUse" xlink:href="#s"/>
  <linearGradient id="dj" x1="439.28" x2="504.53" y1="271.33" y2="256.37" gradientUnits="userSpaceOnUse" xlink:href="#e"/>
  <linearGradient id="di" x1="529.1" x2="533.74" y1="283.59" y2="280.32" gradientUnits="userSpaceOnUse" xlink:href="#h"/>
  <linearGradient id="dh" x1="462.11" x2="497.34" gradientUnits="userSpaceOnUse" xlink:href="#b"/>
  <linearGradient id="df" x1="85.559" x2="122.89" y1="376.23" y2="331.28" gradientUnits="userSpaceOnUse" xlink:href="#c"/>
  <linearGradient id="de" x1="168.08" x2="170.08" y1="376.24" y2="376.1" gradientUnits="userSpaceOnUse" xlink:href="#b"/>
  <linearGradient id="dd" x1="149.35" x2="211.04" y1="361.15" y2="317.28" gradientUnits="userSpaceOnUse" xlink:href="#v"/>
  <linearGradient id="dc" x1="264.57" x2="284.7" y1="361.05" y2="359.42" gradientUnits="userSpaceOnUse" xlink:href="#b"/>
  <linearGradient id="db" x1="115.83" x2="133.59" y1="364.03" y2="346.71" gradientUnits="userSpaceOnUse" xlink:href="#a"/>
  <linearGradient id="da" x1="250.88" x2="266.43" gradientUnits="userSpaceOnUse" xlink:href="#a"/>
  <linearGradient id="cz" x1="215.72" x2="217.66" y1="359.13" y2="348.17" gradientUnits="userSpaceOnUse" xlink:href="#b"/>
  <linearGradient id="cy" x1="802.57" x2="800.1" y1="225.71" y2="231.29" gradientUnits="userSpaceOnUse" xlink:href="#n"/>
  <linearGradient id="cx" x1="563.85" x2="576.77" y1="414.73" y2="520.35" gradientUnits="userSpaceOnUse" xlink:href="#i" spreadMethod="reflect"/>
  <linearGradient id="cv" x1="768.28" x2="813.77" gradientUnits="userSpaceOnUse" xlink:href="#i"/>
  <linearGradient id="cu" x1="220.21" x2="270.18" y1="256.08" y2="286.03" gradientUnits="userSpaceOnUse" xlink:href="#f"/>
  <linearGradient id="ct" x1="223.48" x2="211.33" y1="301.57" y2="282.64" gradientUnits="userSpaceOnUse" xlink:href="#a"/>
  <linearGradient id="cs" x1="633.89" x2="382.15" y1="281.5" y2="304.2" gradientUnits="userSpaceOnUse" xlink:href="#x"/>
  <linearGradient id="cr" x1="349.58" x2="283.51" y1="369.66" y2="390.14" gradientUnits="userSpaceOnUse" xlink:href="#v"/>
  <linearGradient id="cq" x1="160.33" x2="162.77" y1="342.73" y2="342.12" gradientUnits="userSpaceOnUse" xlink:href="#b"/>
  <linearGradient id="cp" x1="72.944" x2="162.37" y1="365.28" y2="519.76" gradientUnits="userSpaceOnUse" xlink:href="#p"/>
  <linearGradient id="co" x1="224.15" x2="247.88" y1="414.29" y2="472.3" gradientUnits="userSpaceOnUse" xlink:href="#q"/>
  <linearGradient id="cn" x1="89.969" x2="104.39" gradientTransform="matrix(.99802 -.064387 .060563 .93875 -160.21 57.253)" gradientUnits="userSpaceOnUse" xlink:href="#a"/>
  <linearGradient id="cm" x1="328.25" x2="346.06" y1="444.48" y2="434.55" gradientUnits="userSpaceOnUse" xlink:href="#l"/>
  <linearGradient id="cl" x1="835.51" x2="786.72" y1="179.98" y2="250.59" gradientUnits="userSpaceOnUse" xlink:href="#k"/>
  <linearGradient id="cg" x1="630.79" x2="635.57" y1="216.19" y2="218.39" gradientUnits="userSpaceOnUse" xlink:href="#y"/>
  <linearGradient id="cf" x1="319.78" x2="361.28" gradientUnits="userSpaceOnUse" xlink:href="#j"/>
  <linearGradient id="ce" x1="351.89" x2="352.4" y1="347.44" y2="346.99" gradientUnits="userSpaceOnUse" xlink:href="#j"/>
  <linearGradient id="cd" x1="319.84" x2="359.34" gradientUnits="userSpaceOnUse" xlink:href="#a"/>
  <radialGradient id="cc" cx="458.03" cy="395.56" r="486.16" gradientTransform="matrix(.81782 -.13005 .068063 .428 60.857 344.16)" gradientUnits="userSpaceOnUse">
   <stop stop-color="#1c1c1c" offset="0"/>
   <stop stop-color="#666" stop-opacity="0" offset="1"/>
  </radialGradient>
  <radialGradient id="bv" cx="329.5" cy="330.56" r="33.377" gradientTransform="matrix(1.6144 .074153 -.014368 .31281 -197.69 202.72)" gradientUnits="userSpaceOnUse">
   <stop stop-color="#e0e0e0" offset="0"/>
   <stop stop-color="#e0e0e0" stop-opacity="0" offset="1"/>
  </radialGradient>
  <radialGradient id="bj" cx="623.95" cy="270.48" r="92.835" gradientTransform="matrix(3.4505 -.28732 .021546 .25875 -1541.1 402.8)" gradientUnits="userSpaceOnUse">
   <stop stop-color="#e6e6e6" stop-opacity=".83871" offset="0"/>
   <stop stop-color="#e6e6e6" stop-opacity="0" offset="1"/>
  </radialGradient>
  <radialGradient id="bi" cx="786.27" cy="257.32" r="45.172" gradientTransform="matrix(3.4917 -.61493 .069748 .39605 -1992.5 665.36)" gradientUnits="userSpaceOnUse">
   <stop stop-color="#e6e6e6" stop-opacity=".51613" offset="0"/>
   <stop stop-color="#e6e6e6" stop-opacity="0" offset="1"/>
  </radialGradient>
  <radialGradient id="bg" cx="479.59" cy="355.37" r="22.624" gradientTransform="matrix(.75917 -3.7725e-6 1.2803e-6 .25343 114.01 262.64)" gradientUnits="userSpaceOnUse">
   <stop stop-color="#e6e6e6" stop-opacity=".75806" offset="0"/>
   <stop stop-color="#e6e6e6" stop-opacity=".14159" offset="1"/>
  </radialGradient>
  <radialGradient id="aa" cx="-62.644" cy="476.38" r="17.866" gradientTransform="matrix(-.19112 -2.1452 2.6873 -.23941 -1313.7 473.41)" gradientUnits="userSpaceOnUse">
   <stop offset="0"/>
   <stop stop-opacity="0" offset="1"/>
  </radialGradient>
  <radialGradient id="bw" cx="467.31" cy="436.34" r="31.156" gradientTransform="matrix(1.8296 -.35675 .28245 1.4486 -510.32 -30.331)" gradientUnits="userSpaceOnUse" xlink:href="#u"/>
  <radialGradient id="br" cx="376.9" cy="471.76" r="9.2938" gradientTransform="matrix(1 0 0 .19668 0 378.98)" gradientUnits="userSpaceOnUse" xlink:href="#a"/>
  <radialGradient id="bm" cx="371.88" cy="482.12" r="18.59" gradientTransform="matrix(1 0 0 .085382 0 440.95)" gradientUnits="userSpaceOnUse" xlink:href="#u"/>
  <radialGradient id="cb" cx="467.94" cy="443.43" r="31.156" gradientTransform="matrix(1 0 0 1.6204 0 -273.98)" gradientUnits="userSpaceOnUse" xlink:href="#e"/>
  <radialGradient id="ca" cx="217.13" cy="478.28" r="16.45" gradientTransform="matrix(1 0 0 .11228 0 424.58)" gradientUnits="userSpaceOnUse" xlink:href="#h"/>
  <radialGradient id="bz" cx="224.62" cy="471.84" r="11.539" gradientTransform="matrix(1.0539 -.094373 .01533 .1712 -19.347 412.26)" gradientUnits="userSpaceOnUse" xlink:href="#h"/>
  <radialGradient id="by" cx="744.16" cy="272.11" r="1.65" gradientUnits="userSpaceOnUse" xlink:href="#t"/>
  <radialGradient id="bx" cx="282.58" cy="386.28" r="128.43" gradientTransform="matrix(1.0903 -.11527 .013037 .12331 -30.548 309.63)" gradientUnits="userSpaceOnUse" xlink:href="#k"/>
  <radialGradient id="bu" cx="779.57" cy="378.87" r="16.268" gradientTransform="matrix(2.8072 -.42663 .054396 .35793 -1435.3 580.47)" gradientUnits="userSpaceOnUse" xlink:href="#c"/>
  <radialGradient id="bt" cx="51.965" cy="441.03" r="20.744" gradientTransform="matrix(4.1724 -1.7921 .60153 1.4005 -439.09 -76.23)" gradientUnits="userSpaceOnUse" xlink:href="#q"/>
  <radialGradient id="bs" cx="588.2" cy="254.89" r="117.26" gradientTransform="matrix(-2.0161 .17728 -.0098998 -.11258 1793 258.37)" gradientUnits="userSpaceOnUse" xlink:href="#a"/>
  <radialGradient id="bq" cx="694.44" cy="328.98" r="89.208" gradientTransform="matrix(6.3653 -.21508 .011145 .32985 -3729.5 369.83)" gradientUnits="userSpaceOnUse" xlink:href="#a"/>
  <radialGradient id="bp" cx="800.58" cy="324.57" r="21.363" gradientTransform="matrix(5.7134 -1.1426e-5 2.5154e-6 1.2813 -3773.5 -91.303)" gradientUnits="userSpaceOnUse" xlink:href="#a"/>
  <radialGradient id="bo" cx="600.62" cy="384.58" r="22.2" gradientTransform="matrix(-2.4145 .51997 -.036149 -.16786 2064.7 155.22)" gradientUnits="userSpaceOnUse" xlink:href="#c"/>
  <radialGradient id="bn" cx="688.67" cy="393.22" r="84.481" gradientTransform="matrix(3.3369 -.46887 .013164 .093688 -1614.5 679.28)" gradientUnits="userSpaceOnUse" xlink:href="#x"/>
  <radialGradient id="bl" cx="323.25" cy="288.86" r="98.779" gradientTransform="matrix(1.8531 -.25736 .027135 .19537 -292.57 317.37)" gradientUnits="userSpaceOnUse" xlink:href="#c"/>
  <radialGradient id="bk" cx="307.5" cy="300.7" r="55.75" gradientTransform="matrix(.73794 -.06118 .01012 .12207 77.541 282.8)" gradientUnits="userSpaceOnUse" xlink:href="#z"/>
  <radialGradient id="bh" cx="544.44" cy="232.28" r="125.44" gradientTransform="matrix(-2.0143 .25934 -.020887 -.16223 1658.2 194.45)" gradientUnits="userSpaceOnUse" xlink:href="#j"/>
  <radialGradient id="bf" cx="84.668" cy="302.35" r="32.283" gradientTransform="matrix(1.0186 -.17619 .022251 .12864 -8.1153 290)" gradientUnits="userSpaceOnUse" xlink:href="#i"/>
  <radialGradient id="be" cx="203.6" cy="294.4" r="61.294" gradientTransform="matrix(2.3964 .092351 -.0090157 .23395 -301.36 224.31)" gradientUnits="userSpaceOnUse" xlink:href="#k"/>
  <radialGradient id="bd" cx="161.41" cy="363.4" r="32.657" gradientTransform="matrix(-.016189 -.13278 1.3701 -.16704 -342.79 397.32)" gradientUnits="userSpaceOnUse" xlink:href="#z"/>
  <radialGradient id="bc" cx="215.06" cy="305.13" r="17.116" gradientTransform="matrix(2.7171 .085581 -.0069417 .22039 -369.78 215.97)" gradientUnits="userSpaceOnUse" xlink:href="#f"/>
  <radialGradient id="bb" cx="-108.13" cy="311.01" r="64.122" gradientTransform="matrix(-6.35e-7 .64199 -1.535 1.5352e-6 621.7 352.56)" gradientUnits="userSpaceOnUse" xlink:href="#f"/>
  <radialGradient id="ba" cx="362.17" cy="445.18" r="82.047" gradientTransform="matrix(.70892 -.6171 .63595 .73057 -177.69 331.96)" gradientUnits="userSpaceOnUse" xlink:href="#w"/>
  <radialGradient id="az" cx="39.119" cy="349.53" r="4.9568" gradientTransform="matrix(.89022 .19211 -.54419 2.5217 194.51 -539.4)" gradientUnits="userSpaceOnUse" xlink:href="#c"/>
  <radialGradient id="ay" cx="72.53" cy="319.07" r="27.003" gradientTransform="matrix(.79376 -.27804 .022151 .063237 7.6648 321.34)" gradientUnits="userSpaceOnUse" xlink:href="#c"/>
  <radialGradient id="ax" cx="580.81" cy="-2.515" r="174.05" gradientTransform="matrix(.9479 .050248 -.017088 .32235 29.574 134.28)" gradientUnits="userSpaceOnUse" xlink:href="#f"/>
  <radialGradient id="aw" cx="85.446" cy="359.7" r="10.804" gradientTransform="matrix(1 0 0 1.4959 0 -178.36)" gradientUnits="userSpaceOnUse" xlink:href="#d"/>
  <radialGradient id="av" cx="178.12" cy="426.48" r="152.78" gradientTransform="matrix(1.3316 1.0743e-6 -4.1456e-8 .051403 -59.498 385.62)" gradientUnits="userSpaceOnUse" xlink:href="#d"/>
  <radialGradient id="au" cx="366.42" cy="402.47" r="38.97" gradientTransform="matrix(.81325 -.19361 .027354 .1149 57.42 427.16)" gradientUnits="userSpaceOnUse" xlink:href="#d"/>
  <radialGradient id="at" cx="344.63" cy="460.97" r="66.254" gradientTransform="matrix(1 -.10266 .0088678 .086377 -4.0216 409.5)" gradientUnits="userSpaceOnUse" xlink:href="#d"/>
  <radialGradient id="as" cx="329.94" cy="438.32" r="9.4269" gradientTransform="matrix(1.3514 .19724 -.34776 .86397 36.505 -5.4539)" gradientUnits="userSpaceOnUse" xlink:href="#l"/>
  <radialGradient id="ar" cx="320.51" cy="433.19" r="9.6144" gradientTransform="matrix(.74864 .57994 -1.1449 .52013 578.76 21.55)" gradientUnits="userSpaceOnUse" xlink:href="#n"/>
  <radialGradient id="aq" cx="337.16" cy="442.78" r="5.6858" gradientTransform="matrix(1.8958 -.16772 .16977 1.919 -377.2 -350.37)" gradientUnits="userSpaceOnUse" xlink:href="#m"/>
  <radialGradient id="ap" cx="378.15" cy="584.75" r="116.81" gradientTransform="matrix(2.1792 -.23332 .016941 .15823 -469.46 202.58)" gradientUnits="userSpaceOnUse" xlink:href="#w"/>
  <radialGradient id="ao" cx="58.253" cy="436.74" r="4.4233" gradientTransform="matrix(1 0 0 1.7639 0 -333.64)" gradientUnits="userSpaceOnUse" xlink:href="#m"/>
  <radialGradient id="an" cx="769.49" cy="278.91" r="14.43" gradientTransform="matrix(1 -2.172e-6 3.9193e-7 .1805 -.026082 235.77)" gradientUnits="userSpaceOnUse" xlink:href="#e"/>
  <radialGradient id="am" cx="783.72" cy="290.41" r="3.283" gradientTransform="matrix(-1 -8.1576e-6 7.6988e-6 -.94376 1564.4 564.49)" gradientUnits="userSpaceOnUse" xlink:href="#e"/>
  <radialGradient id="al" cx="777.3" cy="291.94" r="3.0469" gradientTransform="matrix(.61376 .28882 -.49129 1.044 443.65 -237.47)" gradientUnits="userSpaceOnUse" xlink:href="#e"/>
  <radialGradient id="ak" cx="652.5" cy="262.18" r="13.978" gradientTransform="matrix(.53955 .011391 -.013909 .68729 304.09 74.756)" gradientUnits="userSpaceOnUse" xlink:href="#t"/>
  <radialGradient id="aj" cx="50.865" cy="384.08" r="15.372" gradientTransform="matrix(2.3732 .064472 -.0096009 .3534 -66.922 250.4)" gradientUnits="userSpaceOnUse" xlink:href="#r"/>
  <radialGradient id="ai" cx="100.01" cy="392.5" r="14.2" gradientTransform="matrix(1 0 0 .16574 0 327.45)" gradientUnits="userSpaceOnUse" xlink:href="#s"/>
  <radialGradient id="ah" cx="133.9" cy="391.52" r="5.8642" gradientTransform="matrix(1 0 0 .37103 0 246.25)" gradientUnits="userSpaceOnUse" xlink:href="#r"/>
  <radialGradient id="ag" cx="59.342" cy="423.38" r="3.6776" gradientTransform="matrix(1 0 0 .5096 0 207.63)" gradientUnits="userSpaceOnUse" xlink:href="#g"/>
  <radialGradient id="af" cx="106.79" cy="425.69" r="16.45" gradientTransform="matrix(1 0 0 .32534 0 287.2)" gradientUnits="userSpaceOnUse" xlink:href="#g"/>
  <radialGradient id="ae" cx="106.79" cy="425.69" r="16.387" gradientTransform="matrix(1.3987 -8.992e-7 2.075e-7 .32277 -42.578 288.29)" gradientUnits="userSpaceOnUse" xlink:href="#g"/>
  <radialGradient id="ad" cx="612.64" cy="257.29" r="16.015" gradientTransform="matrix(1.5751 .74577 -.62711 1.3245 -190.98 -540.9)" gradientUnits="userSpaceOnUse" xlink:href="#y"/>
  <radialGradient id="ac" cx="353.26" cy="350.78" r="13.125" gradientTransform="matrix(.75157 .65965 -.67887 .77346 325.89 -155.91)" gradientUnits="userSpaceOnUse" xlink:href="#o"/>
  <radialGradient id="ab" cx="286.11" cy="459.09" r="16.586" gradientTransform="matrix(.75852 -.3991 1.2159 2.3108 -489.1 -481.18)" gradientUnits="userSpaceOnUse" xlink:href="#d"/>
 </defs>
 <g transform="translate(147.15 -181.92)">
  <path transform="translate(-138.64 30.505)" d="m11.41 518.7 409.66 7.1652 562.67-71.969-381.38 1.031-590.94 63.773z" fill="url(#cc)" fill-rule="evenodd"/>
  <path transform="translate(-138.64 30.505)" d="m200.99 476.24c11.154 0.88423 34.92 8.074 33.447 2.6446 1.1408-0.9334 2.2816-1.0371 3.4224-0.31113 1.2279 11.811 8.622 12.377 16.801 11.512 0.51071 4.0972 13.841 3.7043 14.468 1.5557l56.159 0.62226c1.9272 1.478 4.196 1.9314 6.5338 2.1779l14.468-0.15556c0.72075-0.04542 1.2639-0.31285 1.4001-1.089 6.2856-0.70003 13.767 1.3911 18.823-2.1779 8.48 1.9418 13.102-1.3294 16.179-6.6893l8.2355-0.44944-7.7688-27.397-95.673 7.7783-88.828 0.93339 2.3335 11.045z" fill="#1a1a1a" fill-rule="evenodd" stroke="#000" stroke-width=".125"/>
  <path transform="translate(-138.64 30.505)" d="m488.94 358.34c-22.331 0.14376-36.784 10.021-47.562 24.438l-0.03125 1.2188c8.7476-13.326 20.567-21.5 33.562-21.5 26.919 0 48.781 35.088 48.781 78.344 1e-5 7.417-0.6429 14.572-1.8438 21.375l0.25-0.0625c0.37425-0.88982 0.68013-1.8423 0.59375-3.1875l6.5938 0.46875c3.0319-0.06178 6.1582-2.9204 6.7812-7.5 0.28581-3.3436 0.83162-9.5236 0.78125-17.188-0.16455-25.03-6.5451-65.979-47.906-76.406z" fill="#333" fill-rule="evenodd" stroke="#000" stroke-width=".125"/>
  <path transform="translate(-138.64 30.505)" d="m879.09 319.44c-14.679 1.5926-24.148 7.7052-30.875 16.188 41.144-16.345 42.745 40.887 53.719 58.25l3.5312 0.8125 0.40625-0.3125-0.15625-6.1875c7.0315-35.99-4.3053-61.58-26.625-68.75z" fill="#333" fill-rule="evenodd" stroke="#000" stroke-width=".125"/>
  <path transform="translate(-138.64 30.505)" d="m354.22 480.9c-1.2445 0.82968-1.2445 1.7631 0 2.8002 9.637-1.1347 24.132-1.1484 36.247-1.7112l-1.089-1.4001c-11.719 0.09714-23.439-0.36092-35.158 0.31113z" fill="url(#bm)" fill-rule="evenodd"/>
  <path transform="translate(-138.64 30.505)" d="m368.22 471.34 17.501-1.4001 0.46669 2.1001-17.657 1.5557c-1.281-0.51644-1.0958-1.3261-0.31113-2.2557z" fill="url(#br)" fill-rule="evenodd"/>
  <g transform="translate(-138.64 30.505)">
   <path d="m474.38 382.16c20.812 1e-5 37.688 26.666 37.688 59.5s-16.875 59.469-37.688 59.469-37.719-26.635-37.719-59.469 16.906-59.5 37.719-59.5z" fill="none" stroke="#000" stroke-linecap="round" stroke-linejoin="round" stroke-width=".13044"/>
   <path d="m472.04 385.83c19.526 1e-5 35.359 25.018 35.359 55.824s-15.833 55.795-35.359 55.795-35.388-24.989-35.388-55.795 15.862-55.824 35.388-55.824z" fill="#b3b3b3" stroke="#000" stroke-linecap="round" stroke-linejoin="round" stroke-width=".12238"/>
   <path d="m474.91 362.5c-26.919 0-48.781 35.088-48.781 78.344s21.862 78.375 48.781 78.375 48.781-35.12 48.781-78.375-21.862-78.344-48.781-78.344zm-0.53125 19.656c20.812 1e-5 37.688 26.666 37.688 59.5s-16.875 59.469-37.688 59.469-37.719-26.635-37.719-59.469 16.906-59.5 37.719-59.5z" stroke="#000" stroke-linecap="round" stroke-linejoin="round" stroke-width=".13044"/>
   <path d="m474.38 382.16c20.812 1e-5 37.688 26.666 37.688 59.5s-16.875 59.469-37.688 59.469-37.719-26.635-37.719-59.469 16.906-59.5 37.719-59.5z" fill="#ececec" stroke="#000" stroke-linecap="round" stroke-linejoin="round" stroke-width=".13044"/>
   <path transform="matrix(.69837 0 0 .73742 139.24 112.91)" d="m521.74 445.81a47.804 73.413 0 1 1 -95.607 0 47.804 73.413 0 1 1 95.607 0z" fill="#b3b3b3"/>
   <path d="m474.34 362.5-47.5 0.21875c-25.199 3.0318-45.094 36.863-45.094 78.125 0 43.255 21.862 75.969 48.781 75.969l43.938 2.5c-0.07507-0.03872-0.14386-0.08614-0.21875-0.125-26.615-0.57-48.125-35.443-48.125-78.344-1e-5 -42.951 21.56-77.855 48.219-78.344z" fill="none" stroke="#000" stroke-linecap="round" stroke-linejoin="round" stroke-width=".13044"/>
   <path transform="matrix(.59273 0 0 .62587 189.08 162.64)" d="m521.74 445.81a47.804 73.413 0 1 1 -95.607 0 47.804 73.413 0 1 1 95.607 0z" fill="#666"/>
   <path d="m474.34 362.5-47.5 0.21875c-25.199 3.0318-45.094 36.863-45.094 78.125 0 43.255 21.862 75.969 48.781 75.969l43.938 2.5c-0.07507-0.03872-0.14386-0.08614-0.21875-0.125-26.615-0.57-48.125-35.443-48.125-78.344-1e-5 -42.951 21.56-77.855 48.219-78.344z" stroke="#000" stroke-linecap="round" stroke-linejoin="round" stroke-width=".13044"/>
   <path d="m467.94 391.22c-16.092 0-29.344 19.865-30.938 45.281-0.05311 0.8472-0.09812 1.7035-0.125 2.5625-0.02343 0.85667-0.03125 1.7278-0.03125 2.5938s0.00437 1.7347 0.03125 2.5938 0.07189 1.7153 0.125 2.5625c1.5933 25.416 14.846 45.25 30.938 45.25 17.165 0 31.094-22.572 31.094-50.406s-13.929-50.438-31.094-50.438zm3.0938 6.6875c1.2805 0.05691 2.5265 0.3684 3.75 0.9375l-2.9388 14.636-4.7175-14.949c1.2558-0.52672 2.5783-0.57726 3.9062-0.625zm-6.2988 1.4187 4.3925 15.738c1.3235 4.3986-3.9103 5.4406-4.9375 2.5312l-3.6962-15.375c1.5396-1.894 2.3089-2.2973 4.2412-2.8938zm12.955 0.64376c1.4858-0.01593 2.6418 1.3771 3.4062 2.6562l-1.0312 13.219c-0.14057 4.5912-4.949 3.9287-5 0.84375l1.5625-16.469c0.37833-0.17275 0.71963-0.24632 1.0625-0.25zm-19.469 3.8438 3.6625 15.26-9.4438-8.76c1.6035-2.3282 3.2806-4.6203 5.7812-6.5zm25.281 0.34375c2.219 1.0806 3.8613 3.6071 5.625 6.2812l-6.6575 8.1625 1.0325-14.444zm-32.924 8.215 9.4238 8.8788c4.0324 3.7259-0.23428 10.118-4.625 6.125l-8.375-7.75c0.69246-2.8015 1.9335-4.9626 3.5762-7.2538zm39.58 1.5038c2.0798 0.77105 2.6318 3.9081 2.1875 5.6875l-5.5938 9.125c-3.3395 3.1539-4.7033-5.5282-2.5625-7.75l5.9688-7.0625zm-43.875 7.875 9.4475 10.599-11.823 0.83874c-0.28993-1.1991 1.9251-11.775 2.375-11.438zm47.969 1.1875c1.6668 3.3576 1.4264 6.528 1.1875 10.312l-8.2863-0.49499 7.0988-9.8175zm-28.375 0.96875c3.5715 4.4292-1.0544 8.7014-2.7812 7.8438 0.47241-2.5653 0.89987-5.1219 2.7812-7.8438zm11.75 0.3125c0.802-0.01985 1.588 0.23505 2.25 0.78125 2.6123 2.1552-3.2114 10.356-6.5312 5.4062-0.64041-3.7155 1.8752-6.128 4.2812-6.1875zm-8.125 6.3125c2.8655 0 5.1875 4.3835 5.1875 9.7812s-2.322 9.7812-5.1875 9.7812-5.1875-4.3835-5.1875-9.7812 2.322-9.7812 5.1875-9.7812zm19.031 5.375c0.08222-0.00675 0.16497-0.01103 0.25 0l6.8125 0.09375c0.61767 1.0311 0.66958 6.4172 0.5 8.125l-6.875 0.40625c-4.3869 0.06966-3.2362-8.4158-0.6875-8.625zm-33.531 0.5c3.447 0.0652 3.4837 8.9502-0.34375 8.875l-11.281-0.15625 0.125-8.3125 11.5-0.40625zm24.906 5.375c2.1907-0.07465 4.4111 1.8265 3.2812 5.0625-1.8078 5.1776-7.9479 1.6255-6.4688-2.6562 0.55467-1.6056 1.8731-2.3615 3.1875-2.4062zm-19.531 0.21875c3.8366 0.45283 3.7771 5.4328-0.0625 6.4062-0.13819-2.3742-0.45634-4.0924 0.0625-6.4062zm35.75 5.5312c-0.69547 3.4916-1.4452 6.925-2.8125 9.9688l-6.1013-9.315 8.9138-0.65374zm-52.219 0.5 11.419 0.65124s-9.2726 9.8201-9.8875 10.786c-0.67229 1.0564-2.4063-11.262-1.5312-11.438zm42.281 3.5312c0.19706-0.00597 0.41225 0.01376 0.625 0.0625l5.5312 8.9688c-0.23596 1.8848-1.6414 4.3715-2.75 6.25l-5.8125-6.4375c-1.6844-2.8136-0.54958-8.7542 2.4062-8.8438zm-28.812 0.375c2.9112 0.09026 4.0637 6.132 2.0625 7.6875l-10.094 9.0625-2.9062-5.9688 9.5625-10.438c0.48356-0.26095 0.95912-0.35664 1.375-0.34375zm11.906 0c2.7208-0.12977 4.6509 6.8014 3.0312 7.4375-1.807 0.7097-7.0498-5.2362-3.9062-7.1562 0.29471-0.18 0.59353-0.26783 0.875-0.28125zm8.0938 9.9062c0.64134 0.00122 1.2686 0.28907 1.7188 0.90625l0.5 15.375c-0.74815 1.3726-3.1041 2.6496-4.4688 2.9062l-1.125-15.656c0.40798-2.1807 1.964-3.5339 3.375-3.5312zm-11.594 0.53125c2-0.00255 3.9424 2.7268 2.5 6.5625l-5.4375 13.031c-1.7339-0.69147-3.2633-1.5372-4.0938-2.9062l4.5938-14.844c0.62305-1.2674 1.5284-1.8426 2.4375-1.8438zm15.844 1.6875 6.0625 5.5625c-1.1031 2.8036-3.2598 4.7326-5.7188 6.4062l-0.34375-11.969zm-21.247-0.97627-3.69 14.976c-2.2229-1.8712-4.4147-3.7912-5.9688-7l9.6588-7.9763zm10.846 6.5363 2.2137 12.034c-2.4181 1.4557-5.0454 1.0909-7.6875 0.53125 0 0 5.4738-11.882 5.4738-12.565z" fill="url(#bw)"/>
   <path d="m465.63 446.47 3.1388 2.6559c2.5964-3.9296 4.1639-8.5452 4.8289-13.762l-3.2595-2.7766c-1.2352 4.8505-2.5253 9.6644-4.7082 13.883z" fill="#e6e6e6" fill-rule="evenodd"/>
  </g>
  <path transform="translate(-138.64 30.505)" d="m864.54 343.38c17.203 0 31.151 24.296 31.151 54.213s-13.948 54.184-31.151 54.184-31.177-24.268-31.177-54.184 13.974-54.213 31.177-54.213z" fill="none" stroke="#000" stroke-linecap="round" stroke-linejoin="round" stroke-width=".1132"/>
  <path transform="translate(-138.64 30.505)" d="m862.61 346.72c16.14 1e-5 29.226 22.795 29.226 50.863s-13.087 50.836-29.226 50.836-29.251-22.768-29.251-50.836 13.111-50.863 29.251-50.863z" fill="none" stroke="#000" stroke-linecap="round" stroke-linejoin="round" stroke-width=".1062"/>
  <path transform="translate(-138.64 30.505)" d="m864.98 325.47c-22.25 0-40.321 31.97-40.321 71.382s18.07 71.41 40.321 71.41 40.321-31.999 40.321-71.41-18.07-71.382-40.321-71.382zm-0.43911 17.91c17.203 0 31.151 24.296 31.151 54.213s-13.948 54.184-31.151 54.184-31.177-24.268-31.177-54.184 13.974-54.213 31.177-54.213z" stroke="#000" stroke-linecap="round" stroke-linejoin="round" stroke-width=".1132"/>
  <path transform="translate(-138.64 30.505)" d="m864.54 343.38c17.203 0 31.151 24.296 31.151 54.213s-13.948 54.184-31.151 54.184-31.177-24.268-31.177-54.184 13.974-54.213 31.177-54.213z" fill="#ececec" stroke="#000" stroke-linecap="round" stroke-linejoin="round" stroke-width=".1132"/>
  <path transform="matrix(.57725 0 0 .67189 448.89 128.56)" d="m521.74 445.81a47.804 73.413 0 1 1 -95.607 0 47.804 73.413 0 1 1 95.607 0z" fill="#b3b3b3" stroke="#000" stroke-linecap="round" stroke-linejoin="round" stroke-width=".125"/>
  <path transform="translate(-138.64 30.505)" d="m864.52 325.47-39.262 0.19931c-20.828 2.7624-37.273 33.587-37.273 71.182 0 39.412 18.07 69.218 40.321 69.218l36.317 2.2778c-0.06205-0.03528-0.11891-0.07849-0.18081-0.11389-21.999-0.51935-39.778-32.294-39.778-71.382-1e-5 -39.135 17.821-70.937 39.856-71.382z" fill="none" stroke="#000" stroke-linecap="round" stroke-linejoin="round" stroke-width=".1132"/>
  <path transform="translate(-138.64 30.505)" d="m864.52 325.47-39.262 0.19931c-20.828 2.7624-37.273 33.587-37.273 71.182 0 39.412 18.07 69.218 40.321 69.218l36.317 2.2778c-0.06205-0.03528-0.11891-0.07849-0.18081-0.11389-21.999-0.51935-39.778-32.294-39.778-71.382-1e-5 -39.135 17.821-70.937 39.856-71.382z" stroke="#000" stroke-linecap="round" stroke-linejoin="round" stroke-width=".1132"/>
  <path transform="matrix(.48992 0 0 .57025 490.09 173.87)" d="m521.74 445.81a47.804 73.413 0 1 1 -95.607 0 47.804 73.413 0 1 1 95.607 0z" fill="#666" stroke="#000" stroke-linecap="round" stroke-linejoin="round" stroke-width=".125"/>
  <g transform="matrix(.82656 0 0 .91114 333.8 25.685)" stroke="#000">
   <path d="m467.94 391.22c-16.092 0-29.344 19.865-30.938 45.281-0.05311 0.8472-0.09812 1.7035-0.125 2.5625-0.02343 0.85667-0.03125 1.7278-0.03125 2.5938s0.00437 1.7347 0.03125 2.5938 0.07189 1.7153 0.125 2.5625c1.5933 25.416 14.846 45.25 30.938 45.25 17.165 0 31.094-22.572 31.094-50.406s-13.929-50.438-31.094-50.438zm2.125 6.6875c0.32175-0.02036 0.64864-0.01423 0.96875 0 1.2805 0.05691 2.5265 0.3684 3.75 0.9375l-2.7188 12.656-4.9375-12.969c1.003-0.34145 1.9722-0.56393 2.9375-0.625zm-5 1.9688 4.0625 15.188c1.3235 4.3986-3.9103 5.4406-4.9375 2.5312l-3.5312-15.375c1.2699-1.7565 1.9362-2.1873 4.4062-2.3438zm12.625 0.09375c1.4858-0.01593 2.6418 1.3771 3.4062 2.6562l-1.0312 13.219c-0.14057 4.5912-4.949 3.9287-5 0.84375l1.5625-16.469c0.37833-0.17275 0.71963-0.24632 1.0625-0.25zm-19.469 3.8438 2.5625 13.5-8.3438-7c1.6035-2.3282 3.2806-4.6203 5.7812-6.5zm25.281 0.34375c2.219 1.0806 3.8613 3.6071 5.625 6.2812l-6.4375 7.0625 0.8125-13.344zm-32.594 8.875 9.0938 8.2188c4.0324 3.7259-0.23428 10.118-4.625 6.125l-8.375-7.75c0.69246-2.8015 2.2635-4.7426 3.9062-6.5938zm39.25 0.84375c2.0798 0.77105 2.6318 3.9081 2.1875 5.6875l-5.5938 9.125c-3.3395 3.1539-4.7033-5.5282-2.5625-7.75l5.9688-7.0625zm-43.875 7.875 7.6875 9.7188-10.062 1.7188c-0.28993-1.1991 1.9251-11.775 2.375-11.438zm47.969 1.1875c1.6668 3.3576 1.4264 6.528 1.1875 10.312l-7.4062-1.375 6.2188-8.9375zm-28.375 0.96875c3.5715 4.4292-1.0544 8.7014-2.7812 7.8438 0.47241-2.5653 0.89987-5.1219 2.7812-7.8438zm11.75 0.3125c0.802-0.01985 1.588 0.23505 2.25 0.78125 2.6123 2.1552-3.2114 10.356-6.5312 5.4062-0.64041-3.7155 1.8752-6.128 4.2812-6.1875zm-8.125 6.3125c2.8655 0 5.1875 4.3835 5.1875 9.7812s-2.322 9.7812-5.1875 9.7812-5.1875-4.3835-5.1875-9.7812 2.322-9.7812 5.1875-9.7812zm19.031 5.375c0.08222-0.00675 0.16497-0.01103 0.25 0l6.8125 0.09375c0.61767 1.0311 0.66958 6.4172 0.5 8.125l-6.875 0.40625c-4.3869 0.06966-3.2362-8.4158-0.6875-8.625zm-33.531 0.5c3.447 0.0652 3.4837 8.9502-0.34375 8.875l-11.281-0.15625 0.125-8.3125 11.5-0.40625zm24.906 5.375c2.1907-0.07465 4.4111 1.8265 3.2812 5.0625-1.8078 5.1776-7.9479 1.6255-6.4688-2.6562 0.55467-1.6056 1.8731-2.3615 3.1875-2.4062zm-19.531 0.21875c3.8366 0.45283 3.7771 5.4328-0.0625 6.4062-0.13819-2.3742-0.45634-4.0924 0.0625-6.4062zm35.75 5.5312c-0.69547 3.4916-1.4452 6.925-2.8125 9.9688l-4.7812-8.875 7.5938-1.0938zm-52.219 0.5 9.2188 1.5312s-7.0726 8.94-7.6875 9.9062c-0.67229 1.0564-2.4063-11.262-1.5312-11.438zm42.281 3.5312c0.19706-0.00597 0.41225 0.01376 0.625 0.0625l5.5312 8.9688c-0.23596 1.8848-1.6414 4.3715-2.75 6.25l-5.8125-6.4375c-1.6844-2.8136-0.54958-8.7542 2.4062-8.8438zm-28.812 0.375c2.9112 0.09026 4.0637 6.132 2.0625 7.6875l-10.094 9.0625-2.9062-5.9688 9.5625-10.438c0.48356-0.26095 0.95912-0.35664 1.375-0.34375zm11.906 0c2.7208-0.12977 4.6509 6.8014 3.0312 7.4375-1.807 0.7097-7.0498-5.2362-3.9062-7.1562 0.29471-0.18 0.59353-0.26783 0.875-0.28125zm8.0938 9.9062c0.64134 0.00122 1.2686 0.28907 1.7188 0.90625l0.5 15.375c-0.74815 1.3726-3.1041 2.6496-4.4688 2.9062l-1.125-15.656c0.40798-2.1807 1.964-3.5339 3.375-3.5312zm-11.594 0.53125c2-0.00255 3.9424 2.7268 2.5 6.5625l-5.4375 13.031c-1.7339-0.69147-3.2633-1.5372-4.0938-2.9062l4.5938-14.844c0.62305-1.2674 1.5284-1.8426 2.4375-1.8438zm15.844 1.6875 6.0625 5.5625c-1.1031 2.8036-3.2598 4.7326-5.7188 6.4062l-0.34375-11.969zm-21.688 0.34375-3.25 13.656c-2.2229-1.8712-4.4147-3.7912-5.9688-7l9.2188-6.6562zm10.406 5.6562 3.0938 11.594c-2.4181 1.4557-5.0454 1.0909-7.6875 0.53125 0 0 4.5938-11.442 4.5938-12.125z" fill="url(#cb)" stroke-linecap="round" stroke-linejoin="round" stroke-width=".08355"/>
   <path d="m465.63 446.47 3.1388 2.6559c2.5964-3.9296 4.1639-8.5452 4.8289-13.762l-3.2595-2.7766c-1.2352 4.8505-2.5253 9.6644-4.7082 13.883z" fill="#fff" fill-rule="evenodd" stroke-width=".125"/>
  </g>
  <path transform="translate(-138.64 30.505)" d="m105.38 454.88c9.387 28.253 15.655 47.764 44.661 53.681 21.954 1.3933 47.963-1.6743 49.978-3.0312 16.069-7.254 23.521-23.274 33.194-41.409l-127.83-9.2401z" fill="#1a1a1a" fill-rule="evenodd" stroke="#000" stroke-width=".125"/>
  <path transform="translate(-138.64 30.505)" d="m170.19 476.08 2.5383 1.3094c9.0301 13.581 25.474 7.6914 29.512 2.0524 1.2022-1.6788 3.341-0.69083 3.3409 0.37174-10.605 13.576-34.166 8.0571-35.391-3.7336z" fill="#808080" fill-rule="evenodd"/>
  <path transform="translate(-138.64 30.505)" d="m552.65 457.08 7.0401 3.52 3.52 1.32c42.368-3.7502 77.214-8.7275 111.96-14.236 1.5593-0.52155 3.2329-0.92873 4.198-2.0445 8.8839-2.8874 19.213-3.463 29.04-4.8401 0.51974 1.2139 2.0547 2.0688 3.3668 1.5 3.6819-0.89521 1.669 2.1932 2.8955 3.7534 1.5078 0.79503 2.7256 0.11911 3.8185-0.74521 2.2642-0.31407 4.3913-0.5139 5.429 0.19418 1.8771 1.3816 2.7572 0.51978 3.8505 0.13772 1.8459-1.0997 1.6771-3.9264 2.2-6.1601 4.9356-1.685 9.105-4.4426 14.96-4.8401 18.183-1.4704 34.32-5.9201 51.481-7.4801l-5.2801-13.64-238.48 43.561z" fill="#1a1a1a" fill-rule="evenodd" stroke="#000" stroke-width=".125"/>
  <path transform="translate(-138.64 30.505)" d="m200.68 477.79c5.3024-2.8455 19.653-0.31113 30.335-0.46669 3.1651-0.09359 4.137 2.9054-1.4001 2.8002l-28.935-2.3335z" fill="url(#ca)" fill-rule="evenodd"/>
  <path transform="translate(-138.64 30.505)" d="m217.33 469.86c-0.73299 0.98525-1.7036 1.9705 0.77783 2.9558 3.4335 1.3407 5.8385 1.0562 8.8672 0.77783 2.4145-1.7559 6.301-2.8575 12.445-2.9558 1.9757-0.94117-13.766-0.57238-22.09-0.77783z" fill="url(#bz)" fill-rule="evenodd"/>
  <path transform="translate(-138.64 30.505)" d="m757.69 253.79-121 2.64c-38.817-15.097-77.651-30.298-117.04-48.841 75.828-3.182 151.66-2.879 227.48-3.96l14.96 12.76-4.4001 37.401z" fill="#e6e6e6" fill-rule="evenodd" opacity=".85507"/>
  <path transform="translate(-138.64 30.505)" d="m651.22 177.69-148.72 5.2812-110 14.938-68.656 71.281 92.406 14.969 167.19-11.438 58.094-20.25-102.09-42.219 218.25-9.6875-106.47-22.875zm-254.84 25.844c35.769 1.7794 71.932 3.0321 98.023 17.715 5.4991 2.7893 7.7121 12.976 7.4688 14.945l-1.5796 40.152-135.01-6.2188 31.094-66.594zm-16.175 23.014-19.294 42.954-21.781-3.75 41.075-39.204z" fill="#b3b3b3" fill-rule="evenodd"/>
  <path transform="translate(-138.64 30.505)" d="m50.893 321.04c3.2645-2.1523 9.3674-5.4713 11.973-5.7016l35.527-5.5484 65.357-7.5 24.107-1.9643c14.993-10.213 29.677-20.922 49.286-23.75l90.179-10.357 58.571-61.964c-0.93942-0.46067-1.0236-1.2064-0.53572-2.1429 39.756-23.068 89.135-24.997 134.82-28.75 34.652-2.0547 66.972-1.388 100.36-1.9643 45.901-0.25472 88.406 9.2549 128.93 24.464 44.009 17.343 81.013 39.568 113.93 64.643l93.214 3.0357c5.6974 1.1839 6.113 3.1804 7.6786 5 6.2476 13.961 6.9443 29.203 9.1071 44.107h1.25l-0.35714 8.5714c-4.1106 26.683-25.204 41.314-38.571 61.429l-29.821 12.679-0.17857-7.1429c7.0315-35.99-4.2875-61.58-26.607-68.75-46.329 5.0264-40.811 54.987-60.757 82.879-4.2327 10.593-30.241 17.176-51.564 24.621l-78.571 10.714-166.79 26.071c0.51005-1.484 1.3868-2.6012 1.25-4.7321l6.6071 0.44643c3.0319-0.06179 6.1627-2.9204 6.7857-7.5 1.2192-14.264 6.8825-79.952-47.143-93.571-51.788 0.3334-61.182 53.036-80.714 93.214l-42.918 11.093c-9.3264 1.545-18.674 3.0796-31.946 2.6516l-79.617 2.9446-115.97-1.8082c-8.5987-3.7385-17.99-4.3062-27.4-4.7982-12.35-0.77316-63.393-5.6283-65.66-44.068l3.7881-21.15c0.20501-0.95609-0.03997-2.6622 0.63135-2.8411l4.2932-0.88388c0.33666-1.2313-0.07546-4.9869-0.88388-5.6821-6.2125-4.4334-13.943-6.6715-17.357-17.93-4.6943-15.687-5.8298-28.235 0.54579-35.724 4.1908-3.9477 8.6081-8.36 15.177-12.34z" fill="none" stroke="#000" stroke-width=".125"/>
  <path transform="translate(-138.64 30.505)" d="m275.97 490.08 38.58 0.9334-6.5338-12.134h-18.668l-13.379 11.201z" fill="url(#dq)" fill-rule="evenodd"/>
  <path transform="translate(-138.64 30.505)" d="m602.35 274.47 14.001-26.757 22.401 9.9562 131.3-4.0447-3.1113 28.002-163.97 6.5338-0.62226-13.69z" fill="#501616" fill-rule="evenodd" stroke="#000" stroke-width=".125"/>
  <path transform="translate(-138.64 30.505)" d="m485.11 268.89c5.5899-13.029 12.113-16.315 16.77-37.836l-5.5847 40.469-11.185-2.6336z" fill="#fff" fill-rule="evenodd"/>
  <path transform="translate(-138.64 30.505)" d="m425.05 270.96c55.97-1.3794 110.81-6.8352 168.08-3.52l-7.4801 13.2-160.6-9.6801z" fill="#500" fill-rule="evenodd"/>
  <path transform="translate(-138.64 30.505)" d="m587.19 268.32 3.9601-5.5001c-22.919-14.863-43.962-15.139-59.014 5.6068 1.1962-0.64974 4.6709 0.0273 5.6321-0.78878 15.937-13.531 27.008-16.163 49.422 0.68201z" fill="#840000" fill-rule="evenodd" stroke="#000" stroke-width=".125"/>
  <path transform="translate(-138.64 30.505)" d="m697.19 279.98c0.4542-3.3293-9.4223-9.7949-12.1-9.4601l-82.941 0.88002-5.2801 10.34 100.32-1.76z" fill="#2b1100" fill-rule="evenodd" stroke="#000" stroke-width=".125"/>
  <path transform="translate(-138.64 30.505)" d="m739.65 207.81c3.6703 2.598 9 2.7069 9.4601 10.12l1.76 51.041c-0.00928 5.3441-4.9278 5.779-8.1401 7.9201h20.46l-2.64-60.941-11-11.22-9.9001 3.08z" fill="#2b0000" fill-rule="evenodd" stroke="#000" stroke-width=".125"/>
  <g transform="translate(-138.64 30.505)">
   <path d="m742.95 272.83c0.55 0 1.54-0.11001 1.54-0.11001l-0.11 2.97h-1.54l0.11001-2.86z" fill="#808080" fill-rule="evenodd"/>
   <path transform="translate(-.33 .0275)" d="m745.81 272.11a1.65 1.595 0 1 1 -3.3 0 1.65 1.595 0 1 1 3.3 0z" fill="url(#by)"/>
  </g>
  <path transform="translate(-138.64 30.505)" d="m620.41 247.19c13.347 5.0032 26.694 7.9036 40.041 8.8001 13.224-0.17454 20.707 2.9885 31.68 1.76 25.558-2.1838 45.221-21.137 64.681-16.72l1.32 32.12-154.44 7.4801 16.72-33.44z" fill-rule="evenodd" opacity=".65109"/>
  <path transform="translate(-138.64 30.505)" d="m620.53 171.41c-33.385 0.57632-65.691-0.11724-100.34 1.9375-45.687 3.7528-95.088 5.6818-134.84 28.75-0.48785 0.93643-0.37691 1.6956 0.5625 2.1562l-58.594 61.969-90.156 10.344c-19.609 2.8282-34.319 13.537-49.312 23.75l-24.094 1.9688-65.344 7.5-35.531 5.5625c-2.6058 0.23032-8.7042 3.5352-11.969 5.6875-6.5685 3.9796-10.997 8.3961-15.188 12.344-6.3756 7.4891-5.2568 20.031-0.5625 35.719 3.4143 11.259 11.162 13.504 17.375 17.938 0.80842 0.69518 1.2117 4.4562 0.875 5.6875l-4.2812 0.875c-0.67132 0.1789-4.5011 3.5201-4.7061 4.4762l3.0811 3.8988c1.5898 1.4912 4.9442 2.5818 11.188 2.8438 97.519-0.34638 181.56 2.6375 280.72-0.625 13.927-0.81631 54.966-10.774 58-6.5625 8.236 2.1958 12.59 6.437 10.938 13.812-6.0783 4.5498-8.0454 3.3609-12 4.9375-17.913 3.0641-37.875 5.7325-53.75 7.4375l-187.38-2.5-107.12-2.8125-3.375-0.46875c2.6289 38.036 53.323 42.855 65.625 43.625 9.4103 0.492 18.808 1.0428 27.406 4.7812l115.97 1.8125 79.625-2.9375c13.272 0.4279 22.611-1.1112 31.938-2.6562l42.938-11.094c19.532-40.179 28.931-92.885 80.719-93.219 41.361 10.427 47.742 51.376 47.906 76.406 0.05037 7.6639-0.49544 13.844-0.78125 17.188-0.62303 4.5796-3.7494 7.4382-6.7812 7.5l-6.5938-0.46875c0.13683 2.1309-0.73997 3.266-1.25 4.75l166.78-26.062 78.562-10.719c21.323-7.4452 47.33-14.032 51.562-24.625 19.946-27.892 14.421-77.849 60.75-82.875 22.32 7.1701 33.657 32.76 26.625 68.75l0.1875 7.125 29.812-12.656c13.367-20.114 34.452-34.754 38.562-61.438l0.375-8.5625h-1.25c-2.1628-14.904-2.8774-30.164-9.125-44.125-1.5656-1.8196-1.99-3.8161-7.6875-5l-93.188-3.0312c-32.916-25.075-69.928-47.314-113.94-64.656-40.522-15.209-83.036-24.692-128.94-24.438zm-105.09 18.844c26.016 0.04557 50.995 0.83198 72.969 1.0625 11.137 0.81693 21.904 2.0175 29.062 6.8125l-34.344 78.812c-48.626-2.5234-97.56-4.3045-143.78-4-4.2508-2.6553-8.199-5.5405-13.312-7.5l-96.219 0.625 57.594-61.125c8.923-3.9486 17.827-7.0484 26.75-8.3125 32.672-5.2495 67.832-6.4336 101.28-6.375zm149.34 10.188c22.77-0.13192 58.891 2.1824 83.344 10.875 5.5259 1.627 6.7276 5.4181 8.6562 8.8438 2.1506 18.113 1.9862 53.75 1.0625 53.75l-117.75 5.125c-0.41868-23.04 0.11346-46.085-1.5625-69.125-0.13675-3.734 3.4244-6.1537 5.8125-8.125 2.4867-0.69491 10.088-1.2838 20.438-1.3438zm-30.344 23.781c0.27022 17.48 3.034 51.539 0.8125 52.438-0.27003 0.89804-21.063 0.97429-25.031 0.59375-1.6377 0.14041-1.5549-2.6444-0.53125-5.3125 8.2496-15.91 14.118-32.404 24.75-47.719zm-293.91 108.12c11.424 0 20.688 11.555 20.688 25.812s-9.2635 25.844-20.688 25.844-20.688-11.586-20.688-25.844 9.2635-25.812 20.688-25.812zm-284.62 2.0938c7.4579 0.09438 14.78 8.9579 16.969 21.188 2.4098 13.466-2.2787 25.968-10.469 27.875s-16.809-7.4718-19.219-20.938 2.2787-25.968 10.469-27.875c0.51188-0.1192 1.0178-0.18598 1.5312-0.21875 0.2407-0.01536 0.47817-0.03429 0.71875-0.03125z" fill-rule="evenodd" stroke="#000" stroke-width=".125"/>
  <path d="m-62.962 372.08 1.76-2.64 84.921-3.3 102.74 1.76 4.1801 5.5001 6.6001 28.38-3.74 9.6801-104.28 5.0601-83.161-4.4001-6.6001-9.0201-4.6201-26.4 2.2-4.6201z" fill="url(#dp)" fill-rule="evenodd"/>
  <path transform="translate(-138.64 30.505)" d="m329.81 266.06 57.579-61.114c8.923-3.9486 17.846-7.0696 26.769-8.3338 58.084-9.3324 124.02-5.8302 174.25-5.3033 11.137 0.81693 21.883 2.0235 29.042 6.8185l-34.345 78.792c-48.626-2.5234-97.534-4.274-143.76-3.9695-4.2508-2.6553-8.2044-5.5503-13.318-7.5099l-96.222 0.62019z" fill="#fff" fill-rule="evenodd" opacity=".75" stroke="#000" stroke-width=".125"/>
  <path transform="translate(-138.64 30.505)" d="m482.34 190.66c-22.996 0.71008-46.166 2.4305-68.188 5.9688-8.923 1.2641-17.827 4.3639-26.75 8.3125l-57.594 61.125 96.219-0.625c3.9746 1.5231 7.2428 3.6172 10.5 5.7188h0.15625l13.594-25.281 10.062-20.406 11.156-21.219 10.844-13.594z" fill="url(#do)" fill-rule="evenodd" opacity=".27174"/>
  <path transform="translate(-138.64 30.505)" d="m131 421.78c-1.2516 0.34565-3.0635 0.26318-4.3438 2.5938 4.339 10.525 10.151 23.853 16.312 35.125 1.3933 2.0572 2.9056 4.0946 4.5938 6.125-2.7417-13.112-7.7104-26.507-6.75-39.156l59.688 0.96875c0.83294-0.70616 1.6813-1.3736 3.0312-1.25-0.61496-0.79721-0.59949-2.2579-2.2812-1.9062l-66-0.96875-4.25-1.5312z" fill="url(#dn)" fill-rule="evenodd"/>
  <path transform="translate(-138.64 30.505)" d="m150.61 331.48c0.8786-0.41928 2.207-0.74631 2.3423-2.1213 1.2848-4.6461 5.8831-5.8903 10.916-6.3198 37.799-1.8668 76.09-1.2711 114.55 0.17677 19.063-10.218 51.429-19.279 129.05-27.4-2.7392 4.3102-74.422 5.9863-108.72 27.931-0.66101 1.5521 2.7817 0.11972 4.4194 0l-7.6014 7.4246c-0.32409 1.753-28.904 4.8061-31.997 3.8007l-112.96-3.4913z" fill="url(#bx)" fill-rule="evenodd" opacity=".77899"/>
  <path transform="translate(-138.64 30.505)" d="m819.41 242.56 1.75 14.25c4.664-0.30105 9.3397-0.50618 14.031-0.59375 2.1213-0.2403-0.97219-11.508-2.5-12.531-0.10584-0.11416-0.41968-0.3655-0.75-0.625l-0.53125-0.15625-12-0.34375z" fill="url(#dm)" fill-rule="evenodd" stroke="#000" stroke-width=".125"/>
  <path transform="translate(-138.64 30.505)" d="m823.86 255.13c-12.695-0.98848-26.245 1.0496-40.455 1.5861 0.35278 2.1763 0.70306 3.4682 1.0938 3.4062 17.207-1.6001 33.802-3.5911 50.688-3.9062 0.31335-0.0355 0.48611-0.33279 0.59375-0.78125-3.0117-0.05782-8.6202-0.08144-11.92-0.30486z" fill="#a8a8a8" fill-rule="evenodd" stroke="#000" stroke-width=".125"/>
  <path transform="translate(-138.64 30.505)" d="m270.75 371.97c-1.0687 2.2037-0.64839 3.4183-8.625 3.9375l-91.156 3.0312-3.6562 2.9866c32.891-1.1256 64.706-2.5592 98.344-3.2366 3.671-1.7965 4.6604-4.3541 5.0938-6.7188z" fill="url(#dl)" fill-rule="evenodd"/>
  <path transform="translate(-138.64 30.505)" d="m449.58 279.6c2.1915 2.3025 3.5955 3.0971 6.8449 3.4224l30.335 2.489c-6.7399 0.28634-14.153 0.77453-19.867 1.0706-0.60625-0.77604-17.001-1.5349-17.936-0.6039l13.55 1.6142-14.638 3.8306 73.271-5.6004c-9.3233-0.39415-28.66-2.1756-42.469-3.2669 15.14 0.4667 29.003 0.93339 42.936 1.4001l12.587 1.0796 14.948-3.5687-18.668 1e-5c-24.631-0.57041 14.56-1.2964-80.894-1.8668z" fill="url(#dk)" fill-rule="evenodd"/>
  <path transform="translate(-138.64 30.505)" d="m385.41 202.27c-0.34698 1.0497-0.04091 1.633 0.70005 1.9057 8.5369-4.1332 17.564-6.0316 26.757-7.1755 59.082-10.651 118.44-10.223 178.74-4.9781 8.9346 0.87643 16.987 3.3061 25.631 6.2226l-33.94 78.25c-44.172-3.4516-95.558-3.7448-143.99-3.7336l6.5338 4.5114c47.862-0.32796 93.547 1.2002 141.41 4.9781l38.891-86.806c-6.4418-3.6499-14.353-6.565-24.113-8.5561-14.193-1.9449-29.473-2.0767-44.492-2.6446-39.765-1.5225-76.77-0.99547-117.76 3.8891-13.175 1.4939-26.147 3.5948-38.736 6.8449-5.5411 1.9912-10.499 4.7597-15.634 7.2922z" fill="#ececec" fill-rule="evenodd" stroke="#000" stroke-width=".125"/>
  <path transform="translate(-138.64 30.505)" d="m306.71 392.58-3.1567-6.3134 0.88388-5.6821 2.5254-6.1872c0.51165-13.726-1.9407-27.65-11.49-42.048 2.7583-4.6161 4.8418-5.8579 6.9448-7.1973 67.935-23.756 143.48-33.74 221.35-39.522l-70.847-2.1772c-3.2774-4.1326-24.376-18.296-27.39-18.026l-95.62 0.57904" fill="none" stroke="#b2b2b2" stroke-width=".375"/>
  <path transform="translate(-138.64 30.505)" d="m186.96 300.68c-37.342 7.9277-79.574 7.4948-113.75 26.607-3.2232 2.3352-4.3156 4.9368-5.7143 7.5-8.7829-1.3103-17.512-2.7229-27.768-1.25-2.2041 0.73506-2.9135 1.8972-4.0179 2.9464" fill="none" stroke="#000" stroke-width=".125"/>
  <path transform="translate(-138.64 30.505)" d="m67.5 335.86c64.962-5.7014 130.26-5.3829 195.37-2.7959 0.35964-0.01368 0.42569 2.8283-0.17415 2.9705-65.968-2.616-131.01-2.9644-195.43 1.8787-0.44408 0.02992-0.51412-1.9373 0.23557-2.0533z" fill="#f2f2f2" fill-rule="evenodd" stroke="#000" stroke-width=".125"/>
  <g transform="translate(-138.64 30.505)" fill-rule="evenodd">
   <path d="m497.5 271.2 27.535 7.7783c0.93403 0.67412 3.3098 1.3482-0.15557 2.0224l-27.38-9.8006z" fill="#666"/>
   <path d="m439.35 264.03c8.7635-0.84002 17.527-1.4071 26.29-0.22 12.048 1.1611 23.762 3.6586 35.53 5.9401l25.19 6.9301 6.0501 2.42-3.8501-0.66-1.32 1.1-30.47-8.3601-50.711-5.1701-6.7101-1.98z" fill="url(#dj)"/>
   <path d="m529.09 279.31c0 0.66001-1.1533 1.1646-3.5 1.5312 0.35266 1.32 1.2904 2.6487 0 3.9688-1.4764 0.68739-5.378 0.88547-8.1562 1.3125 2.3221 0.00751 4.81 0.12217 7.2188 0.1875l4.2188-0.375c1.1456-0.02179 2.5856-0.19516 4.1562-0.4375l0.46875-0.6875c-1.1 0.07332-1.7488-0.43121-1.9688-1.5312 0.3088-0.58667 0.32937-1.1946 1.75-1.7812 0.87449-0.66001 0.34062-1.3087-0.21875-1.9688-0.87399 1.0417-2.5578 0.08187-3.9688-0.21875z" fill="url(#di)"/>
   <path d="m445.07 263.89 0.15557 2.1779c5.0818 0.20742 11.233 0.37543 15.401 0.93339 0.24088-1.1973 0.95213-2.2769 2.0224-3.2669l1.2445 0.15557c-1.0295 1.0371-1.6123 2.0742-2.0224 3.1113l1.7112 0.23335c0.94502-1.0342 1.7433-2.1051 1.8668-3.3447l3.2669 0.15556 1.8668 3.7336 21.468 2.6446 4.8225 0.77783 0.46669 1.089c-21.592-1.2492-42.677-4.0165-64.638-3.4224l-5.8337-3.1113c3.9817-1.0686 12.608-1.604 18.201-1.8668z" fill="url(#dh)"/>
  </g>
  <path transform="translate(-138.64 30.505)" d="m307.25 324 46.25 1.25c4.0956 0.69607 6.384 3.1994 8.875 5.5 2.4 5.1094-4.4161 5.3024-7.125 6.375-0.70171 0.02075-4.1595-3.2787-7.25-4.1237-13.736-2.6282-34.583-0.0842-51.875-0.1263 2.945-3.0481 3.0394-6.4316 11.125-8.875z" fill="url(#bv)" fill-rule="evenodd"/>
  <path transform="translate(-138.64 30.505)" d="m263.42 335.5 32.653-3.5714 45-0.71428c21.665 5.7145 34.452 40.861 5 54.643h-48.571" fill="none" stroke="#000" stroke-width=".125"/>
  <path transform="translate(-138.64 30.505)" d="m662.28 192c-3.2731 0.03796-5.5973 0.14062-6.6875 0.25-6.6884 1.2736-13.49 3.7026-18.375 10.688l-35.719 77.719 0.53125 0.65625 134.5-6.4688-96.438 4.1875c-0.41868-23.04 0.11346-46.085-1.5625-69.125-0.13675-3.734 3.4244-6.1537 5.8125-8.125 7.9574-2.2237 68.213-3.1125 103.78 9.5312 5.5259 1.627 6.7276 5.4181 8.6562 8.8438 2.1022 17.706 1.9938 52.115 1.125 53.656l12.156-0.59375c-3.9e-4 -0.03122 3.9e-4 -0.06253 0-0.09375h-1.3438c-1.2627-19.951-0.406-53.273-3.7812-59.844-10.791-19.07-79.745-21.547-102.66-21.281zm-27.844 32.219c0.27022 17.48 3.034 51.539 0.8125 52.438-0.27003 0.89804-21.063 0.97429-25.031 0.59375-1.6377 0.14041-1.5549-2.6444-0.53125-5.3125 8.2496-15.91 14.118-32.404 24.75-47.719z" fill="#ececec" fill-rule="evenodd"/>
  <path transform="translate(-138.64 30.505)" d="m680.91 196.88c-10.887 0.08421-21.645 0.609-32.344 0.8125-5.816 0.90483-6.9091 2.7626-10.125 4.1875l10.125-1.9688c8.0583-0.22261 15.95 0.01547 23.688 0.59375 22.653 0.36918 53.94 3.0151 75.875 10.812 5.5259 1.627 6.7276 5.4181 8.6562 8.8438 2.1506 18.113 1.9862 53.75 1.0625 53.75l-2.3438 0.09375v0.03125l8.125-0.21875-2.8438-53.469c-0.28484-3.1548-1.7373-6.8624-5.5-9.4375-25.844-12.244-50.424-14.217-74.375-14.031z" fill="#999" fill-rule="evenodd"/>
  <path transform="translate(-138.64 30.505)" d="m772.12 381.17c0.10897 0.28391 0.27535 0.65611 0.50173 1.2335 0.36567 1.1282 0.6178 2.6629 0.86828 3.7911 10.971-1.2282 22.047-2.73 30.671-4.6625 0.41362-1.633 1.1447-3.8284-0.7071-3.8756-8.6295 1.5032-19.173 2.7164-31.334 3.5134z" fill="url(#bu)" fill-rule="evenodd"/>
  <path transform="translate(-138.64 30.505)" d="m596.07 283.36-1.4286 3.2143 5.7143 1.4286 5.1786 17.5 4.0178 22.5-4.4643 10.714 0.35714 34.286-1.3393 30.268-0.98214 25.446 165.18-21.071 5.5357-19.286s-0.98215-5.4464-1.875-7.0536 4.5536-23.839 4.5536-23.839l2.5893-26.607 4.7322-11.071-2.1429-32.679-4.4643-11.161-9.1071-2.5-172.05 9.9107z" fill="none" stroke="#7a7a7a" stroke-width=".125"/>
  <path transform="translate(-138.64 30.505)" d="m776.64 211.7c4.8035 13.925 5.8556 48.733 7.868 48.415 17.207-1.6001 33.783-3.5828 50.669-3.8979 2.1214-0.24029-0.97219-11.516-2.5-12.54-2.1167-2.2831-51.428-35.312-56.037-31.977z" fill="none" stroke="#000" stroke-width=".125"/>
  <path transform="translate(-138.64 30.505)" d="m308.98 323.52 44.447 1.2627c10.6 2.1214 19.992 21.403 20.961 28.537" fill="none" stroke="#858585" stroke-width=".625"/>
  <g transform="translate(-138.64 30.505)" fill-rule="evenodd">
   <path d="m55.188 334.47c-0.51349 0.03277-1.0194 0.09955-1.5312 0.21875-8.19 1.9071-12.879 14.409-10.469 27.875 1.637 9.1472 6.1245 16.38 11.406 19.5 4.7715 0.29361 8.7372-0.63159 13.375-3.8438-5.6189 1.3343-9.257 3.7084-14.281 0.09375-2.8943-4.9944-9.0258-8.6718-6.0625-16.062 8.8242-2.8772 15.648-0.46412 23.781 2.75 0.66001 0.11-0.34375-2.1875-0.34375-2.1875-1.105-3.6733-0.21574-8.4496-8.375-8.25l-0.53125 2.0938c-5.1334 2.4826-10.273 0.43874-15.406 0.3125 4.5805-3.4997 3.4653-6.7928-0.4375-10-0.20155-5.2116 1.744-4.3144 3.5312-3.8438l1.0938 1.0938c3.5663-1.0824 6.0444-0.01385 8.7812 0.5625-6.7821-2.7232-6.0443-4.7723-6.6875-6.9375 2.1499-0.34534 4.7362 0.41994 7.4688 1.5312l-2.0938-2.625c3.9721 1.4589 6.8909 4.3176 10.062 6.8438-3.4982-5.8647-8.3834-9.4375-13.281-9.125z" fill="url(#dg)" opacity=".5"/>
   <path transform="matrix(.7754 -.18056 .17539 .98007 -50.191 17.691)" d="m77.472 359.09a19.135 24.891 0 1 1 -38.269 0 19.135 24.891 0 1 1 38.269 0z" fill="#d1d1d1" opacity=".5" stroke="#000" stroke-linecap="round" stroke-linejoin="round" stroke-width=".125"/>
  </g>
  <path transform="translate(-138.64 30.505)" d="m82.062 338.66-11.062 0.3125c0.70759 0.09015 1.3555 0.47862 1.2188 1.0938 0.13147 12.26 0.85099 24.407 8.5938 35.344 5.587 4.7025 55.462 4.4019 84.344 6.4688l-0.35714-2.9732-77.799-4.4955c-2.5254-0.04209-3.007-35.65-4.9375-35.75z" fill="url(#df)" fill-rule="evenodd"/>
  <path transform="translate(-138.64 30.505)" d="m69.433 339.86c-0.08665-1.4161 3.0797-1.0958 2.7932 0.19258 0.13147 12.26 0.84354 24.419 8.5863 35.355 5.6837 4.7839 57.242 4.3773 85.863 6.566 32.945-1.1263 65.304-2.6045 98.995-3.283 4.4178-2.162 4.9456-5.4506 5.3033-8.1444-0.46152-9.6944-2.6143-21.417-5.8715-28.663-0.46883-1.4897-1.6152-4.6914 1.7046-3.6934 3.4822 11.196 6.676 21.887 6.6923 33.082-0.47188 3.6817-2.4788 7.44-5.8084 9.1861-33.194 1.7025-67.932 2.8904-102.03 4.2932-29.128-2.1041-79.623 0.69573-87.378-6.3135-7.9248-9.4225-9.7972-25.322-8.8542-38.578z" fill="#ccc" fill-rule="evenodd"/>
  <path transform="translate(-138.64 30.505)" d="m167.6741,371.95855-3.33481-.01547c.79485,1.34241.20857,6.90775.82485,9.91582 .70896.05127 1.40062.16306 2.14836.0786 .51606-3.32632-.20536-7.00977.3616-9.97895z" fill="#f2f2f2" fill-rule="evenodd"/>
  <path transform="translate(-138.64 30.505)" d="m170.88 371.97-3.2098 0.02902c-0.54578 2.9586 0.17102 6.5691-0.34152 9.8728l3.6451-2.933-0.09375-6.9688z" fill="url(#de)" fill-rule="evenodd"/>
  <path transform="translate(-138.64 30.505)" d="m145.59 349c-4.0913 0.02989-8.1843 0.07929-12.312 0.1875-3.5216-0.06881 3.702 20.414 6.3125 21.438 0.45392 1.2753 47.942 2.2746 47.375-0.28125 0.37278-6.9315-2.2061-21.138-4.75-21.188-12.211-0.0434-24.351-0.24592-36.625-0.15625zm0.90625 1.0625c11.475-0.07914 22.834 0.08669 34.25 0.125 2.3784 0.04333 4.786 12.601 4.4375 18.719 0.27143 1.9196-44.04 1.1375-44.281 0.25-2.4406-0.90322-9.1986-18.967-5.9062-18.906 3.8595-0.09551 7.6751-0.16112 11.5-0.1875z" fill="#e6e6e6" fill-rule="evenodd"/>
  <path transform="translate(-138.64 30.505)" d="m187.38 345.09-47.219 0.28125c-1.982 0.17201-5.7206 2.0414-7.0938 3.8125h0.21875c16.513-0.43285 32.656-0.08912 48.938-0.03125 2.5439 0.04907 5.1228 14.256 4.75 21.188 0.01961 0.08833-0.03376 0.16998-0.125 0.25v0.0625c3.2882-0.13061 6.5529 0.23346 7.2812-2.6875 1.1375-4.0234 0.0121-9.1418-0.15625-13.688-0.57592-4.1232-3.0092-9.1546-6.5938-9.1875z" fill="url(#dd)" fill-rule="evenodd"/>
  <path transform="translate(-138.64 30.505)" d="m283.81 336.41c-4.1595 0.06174-11.832 1.6376-17 1.8125 3.4787 11.185 6.6713 21.876 6.6875 33.062-0.47189 3.6817-2.4829 7.4414-5.8125 9.1875-33.194 1.7025-67.938 2.8785-102.03 4.2812-15.694-1.1337-37.552-0.84975-55.625-1.4375 58.593 5.1643 117.72 0.78786 176.31-2.464 9.6989-2.3661 3.3105-42.062 0.28399-43.786-0.30942-0.50721-1.3251-0.67833-2.8125-0.65625z" fill="url(#dc)" fill-rule="evenodd"/>
  <path transform="translate(-138.64 30.505)" d="m157.77 334.25 0.26785 14.732h2.5l0.02232-14.732h-2.7902z" fill="#ccc" fill-rule="evenodd"/>
  <path transform="translate(-138.64 30.505)" d="m132.78 354.66c-7.0822 1.0515-16.975 0.71659-25.469 1.0625-1.0436 0.21576-2.1311 0.37415-2.75 1.1562-1.5796 0.3247-4.2908 0.34835-6.4375 0.53125h0.5l34.906 0.21875c-0.27629-0.96678-0.49287-1.8992-0.6875-2.7812l-0.0625-0.1875z" fill="url(#db)" fill-rule="evenodd"/>
  <path transform="matrix(1.5453 0 0 2.1024 -268.19 -345.55)" d="m251.25 349.38a7.4107 7.7232 0 1 1 -14.821 0 7.4107 7.7232 0 1 1 14.821 0z" fill="#ececec"/>
  <path transform="translate(-138.64 30.505)" d="m252.66 339.69c-2.3408-0.02009-5.7424 1.4246-8.25 2.9062v0.1875c0.9103-0.33059 1.8611-0.53125 2.8438-0.53125 6.3214 1e-5 11.469 7.2869 11.469 16.25s-5.1474 16.219-11.469 16.219c-0.20287 0-0.39347-0.01645-0.59375-0.03125l-6.2151-3.0338c3.9667 4.6407 12.063 6.0251 17.799 4.3538 10.168-5.3972 11.984-33.194-5.5838-36.32z" fill="url(#da)" fill-rule="evenodd"/>
  <path transform="translate(-138.64 30.505)" d="m194.53 353.03-7.0312 3.4062h0.21875l48.156 0.71875c0.06475-1.1136 0.19082-2.2113 0.40625-3.25l-41.75-0.875z" fill="url(#cz)" fill-rule="evenodd"/>
  <path transform="translate(-138.64 30.505)" d="m187.33 356.43 49.611 0.715c4.4658 0.08965 7.6243 0.38999 7.3701 0.93502-0.52895 2.0869-3.9833 0.78567-8.5801 2.97-14.309 0.35759-28.565 0.98329-43.011 0.66001l-4.4001-1.21c-1.3256-1.2035-1.5703-2.5733-0.99002-4.0701z" fill="#f2f2f2" fill-rule="evenodd" stroke="#000" stroke-width=".125"/>
  <path transform="translate(-138.64 30.505)" d="m777.56 211.44c-0.39688 0.00434-0.6902 0.09367-0.90625 0.25 0.94013 2.7254 1.7182 6.2822 2.4062 10.188l40.594 20.688 11.75 0.34375 0.5625 0.15625c-5.8889-4.6238-45.241-30.752-53.969-31.594-0.15372-0.01482-0.30521-0.0327-0.4375-0.03125z" fill="url(#cy)" fill-rule="evenodd" stroke="#000" stroke-width=".125"/>
  <path transform="translate(-138.64 30.505)" d="m808.94 238.22 11.201-2.0224 4.3558 19.135-11.979-0.31113-3.578-16.801z" fill="#9f9f9f" fill-rule="evenodd" stroke="#000" stroke-width=".125"/>
  <path transform="translate(-138.64 30.505)" d="m797.74 231.06 11.512-1.089 5.7559 25.824-12.756 0.15557-4.5114-24.891z" fill="#848484" fill-rule="evenodd" stroke="#000" stroke-width=".125"/>
  <path transform="translate(-138.64 30.505)" d="m785.92 226.71 12.134-2.6446 5.9115 32.513-13.379-0.15557-4.667-29.713z" fill="#676767" fill-rule="evenodd" stroke="#000" stroke-width=".125"/>
  <path transform="translate(-138.64 30.505)" d="m787.8 218.05-9.0634 1.8003c2.6656 13.503 3.6288 32.21 4.9326 38.041l10.173 0.07471-6.0423-39.915z" fill="#535353" fill-rule="evenodd" stroke="#000" stroke-width=".125"/>
  <path transform="translate(-138.64 30.505)" d="m45.211 418.88c11.661 0.26445 25.487 2.0026 26.549 3.8827l14.814 34.017c-13.088-4.0178-35.803-9.7073-41.363-37.9z" fill="url(#bt)" fill-rule="evenodd"/>
  <g fill="url(#cx)" fill-rule="evenodd" filter="url(#dr)" opacity=".35">
   <path transform="translate(-138.64 30.505)" d="m605.46 377.31-1.591 50.912 164.18-20.882 5.5296-19.029c-0.10466-2.574-1.2125-5.0776-2.0418-7.5959 0.57315-6.5238 2.8937-15.423 4.398-21.79-0.71916 0.90208-1.9521 1.9962-3.0686 1.9445-50.146 2.7106-108.29 5.4776-158.92 12.905-4.954 1.1785-6.2129 2.357-8.4853 3.5355z"/>
   <path transform="translate(-138.64 30.505)" d="m535.63 388.44c22.548-9.8536 46.421-11.296 69.391-16.087l-2.7766 64.523c-0.11073 3.2644-1.401 8.0405-6.3336 11.314l-54.447 9.8995c-2.3267-0.17099-5.782 1.6333-5.6569-2.8284 3.2753-16.043 1.9401-33.404-1.7678-51.442 1.6117-2.119 5.6116 16.46 8.4853 25.279-2.2981-13.553-9.5632-35.053-6.8943-40.659z"/>
   <path transform="translate(-138.64 30.505)" d="m772.75 378.75c8.539-0.85787 22.325-1.0058 25.25-2.75 2.2407-3.5673 12.55-16.095 4.25-18.5-8.126-0.36803-16.108 0.00261-24.562 1.9375-1.776-0.41463-5.5208 18.938-4.9375 19.312z"/>
   <path transform="translate(-138.64 30.505)" d="m603.87 429.46c-1.1455-0.81923-1.3553 7.7192-1.591 11.667-1.0648 3.252-4.5829 5.7076-5.8336 7.955l170.06-22.981c12.529-3.6806 24.414-7.6344 34.825-12.021 7.4557-2.8594 11.867-6.3339 15.556-9.8995 3.7316-3.326-54.447 6.2461-81.671 9.3692l-131.35 15.91z"/>
   <path transform="translate(-138.64 30.505)" d="m773.62 386.12 0.48613 2.2334-5.4359 19.224 49.277-5.3475c9.699-13.535 12.257-30.641 18.385-45.962-1.5401-1.5001-7.5851 12.127-8.4853 10.96-2.5074-2.762-0.47141-9.3102-0.70711-13.965-0.84121-1.6759-8.4387-2.4831-9.7227-1.7678-2.1301-0.17857-6.5997 19.534-11.314 28.726-0.73978 2.12-23.246 4.8524-32.483 5.8984z"/>
  </g>
  <path transform="translate(-138.64 30.505)" d="m374.32 354.69c0.46518-2.9405 163.15-21.556 234.52-25.52l-3.96 9.6801c-75.891 2.6403-228.73 16.9-230.56 15.84z" fill="url(#bs)" fill-rule="evenodd" opacity=".92754"/>
  <path transform="translate(-138.64 30.505)" d="m609.1 329.24-3.8689 9.6935c57.352-4.3335 115.62-7.7382 173.59-7.3387l0.07382-0.73563 4.7442-11.011 0.00791-0.81909c-58.478 2.4429-118.62 5.0778-174.55 10.211z" fill="url(#bq)" fill-rule="evenodd" opacity=".9058"/>
  <path transform="translate(-138.64 30.505)" d="m783.95 319.01 1.1375-0.04248c0.03334-0.28328 0.19849-0.69349 0.43171-0.72693l33.775-0.55061c3.4056-0.20361 2.7702 4.8939 2.2 5.1828-1.397 1.2376-8.9692 6.3974-9.0201 7.0973-0.06193 0.45572-22.169 1.0599-33.253 1.4828l0.00441-0.39646 4.8141-11.313-0.08898-0.73317z" fill="url(#bp)" fill-rule="evenodd" opacity=".92029"/>
  <path transform="translate(-138.64 30.505)" d="m559.56 410.59c0.09695-0.49915 44.023-7.8652 44.399-7.6176l-0.07563 2.2894c-14.929 1.3344-44.315 5.3028-44.324 5.3282z" fill="url(#bo)" fill-rule="evenodd"/>
  <path transform="translate(-138.64 30.505)" d="m604.28 402.97-0.08302 2.2454c58.142-6.7062 117.26-13.277 168.96-19.339-0.49618-1.6517-0.72301-3.3709-1.4584-4.6625-55.524 7.2063-108.93 15.142-167.42 21.756z" fill="url(#bn)" fill-rule="evenodd"/>
  <path transform="translate(-138.64 30.505)" d="m634.45 224.22c-10.632 15.314-16.499 31.82-24.749 47.73-1.0236 2.6681-1.1074 5.4437 0.53033 5.3033 3.9679 0.38053 24.759 0.30521 25.029-0.59283 2.2215-0.8981-0.54044-34.96-0.81066-52.44z" fill="none" stroke="#000" stroke-width=".125"/>
  <path transform="translate(-138.64 30.505)" d="m247.49 302.53c1.6139-3.1198 3.6172-6.7143 8.4853-9.3692 14.87-6.3115 29.293-12.718 45.255-17.501 18.149-3.4283 36.298-4.9502 54.447-7.4246 21.154 0.67742 43.195-0.70427 63.374 1.1491 5.9388 0.75446 9.1682 1.1256 13.612 2.3865 3.8793 1.8462 7.638 3.9338 11.049 6.7175 1.2964 0.82496 1.6499 1.7678 1.0607 2.8284-38.302 3.5498-76.603 8.4003-114.9 13.081-27.459 3.9416-82.378 10.365-82.378 8.1317z" fill="url(#bl)" fill-rule="evenodd" opacity=".71739"/>
  <path transform="translate(-138.64 30.505)" d="m251.75 303.75 86.763-9.1616c12.978-1.3018 15.026-0.07492 18.5 0.20711 5.0489 0.74511 5.6365 1.2646 6.2374 2.4545-1.441 5.0527-57.605 8.7271-86.875 10.125-8.75 0.04167-24.655 0.29579-24.625-3.625z" fill="url(#bk)" fill-rule="evenodd" opacity=".88406"/>
  <path transform="translate(-138.64 30.505)" d="m883.5 318.75c18.079 10.62 29.088 26.903 23.001 70.283-0.22225 1.6562 0.15278 4.1082-0.12578 5.8474l29.125-12.33c10.575-13.826 28.803-34.632 31-40.1 0.70243-7.1667 1.827-16.533 2.08-23.7-4.9003 3.7828-10.513 6.7998-16.08 9.25-0.64583 0.64521-1.2917 1.8743-1.9375 4-13.025 4.3014-21.464 9.6343-37.75 12.75-1.479 0.32815-0.875 18.229-1.0625 19.25-0.19836-26.462-9.8925-41.529-26.75-48l-1.5 2.75z" fill="url(#cw)" fill-rule="evenodd" opacity=".5"/>
  <path transform="translate(-138.64 30.505)" d="m600.52 287.86c1.5844 4.7622 4.1423 11.391 6.1596 14.287 0.61609 1.3873 41.385-1.5588 62.422-2.6195 11.784-1.8277 26.825-1.212 40.305-1.7678 10.823-2.9861 27.043-7.2749 40.659-7.955 1.5364-0.05328 4.7854 0.32359 4.609-0.15985-0.34364-1.5518 0.61015-2.8441 1.3984-4.1695l24.398-0.97391-1.591-3.5355-1.716-4.9301c-60.123 2.2775-117.67 5.7055-181.18 8.0692l-1.1866 2.3419 5.7184 1.4133z" fill="url(#bj)" fill-rule="evenodd"/>
  <path transform="translate(-138.64 30.505)" d="m777.41 275.92 3.4062 8.4531c1.4275 0.31188 3.5939 0.54375 3.5625 3.125 5.5833 0.28799 11.167 0.67793 16.75 1.625 6.7575 0.60588 10.667-7.3333 16-11l50.625-17c-19.497 1.3673-37.869-0.3186-58.5 4.125-5.1042 1.5631-10.496 6.289-15.75 9.5l-16.094 1.1719z" fill="url(#bi)" fill-rule="evenodd"/>
  <path transform="translate(-138.64 30.505)" d="m354.12 324.12c4.5539 1.681 6.7097 4.0472 9 6.375 1.4412-2.4034 2.9964-4.409 6-6.5 72.694-11.254 201.65-19.915 234.83-19.214 0.35965 0.0076 1.2706 0.23504 1.0138-0.50515l-4.8125-16.219c-72.615 7.1251-145.4 13.246-218.91 23.938-11.778 1.3797-19.074 7.6399-27.125 12.125z" fill="url(#bh)" fill-rule="evenodd"/>
  <path transform="translate(-138.64 30.505)" d="m768.28 273.33 8.9482 2.4482 9.2784-0.69665c2.0367-0.23614 10.762-7.5612 16.633-10.783 3.5355-1.0459 11.049-1.7533 10.607-3.1378-0.39316-0.34726-10.292-0.04952-16.087 0.92808-5.7526 1.0828-8.3028 7.2229-14.672 10.341-0.61249 0.45246-6.2837 0.57978-10.789 0.68617-0.12472 0.00294 0.03849 0.18251-0.08477 0.18515-1.4536 0.03115-2.7968 0.04108-3.8332 0.02807z" fill="url(#cv)" fill-rule="evenodd"/>
  <path transform="translate(-138.64 30.505)" d="m458.21 355.92c6.3267-12.284 35.811-9.9039 43.841-4.5962 1.7114 1.5079 2.0354 7.5282 0 7.0711-14.749-7.1898-38.854-1.877-43.841-2.4749z" fill="url(#bg)" fill-rule="evenodd"/>
  <path transform="translate(-138.64 30.505)" d="m26.163 405.77c4.3323-6.9814 13.35-9.2777 22.274-11.667-2.9774 4.3455-5.2134 10.069 10.253 10.718 97.519-0.34637 181.56 2.6213 280.72-0.64124 13.927-0.8163 54.948-10.752 57.983-6.5407 8.236 2.1958 12.613 6.4131 10.96 13.789-6.0783 4.5498-8.0662 3.3731-12.021 4.9497-17.913 3.0641-37.865 5.7196-53.74 7.4246l-187.38-2.4749-107.13-2.8284-17.324-2.4749c-7.3953-3.9507-7.5317-7.2415-4.5962-10.253z" fill="#e6e6e6" fill-rule="evenodd"/>
  <path transform="translate(-138.64 30.505)" d="m48.516 324.3c-0.89824-0.77794 4.7254-5.1426 12.826-8.1602 14.437-2.0035 28.464-5.6451 43.31-6.0104l7.4246-0.17678c1.2472 0.0244 1.2393 0.6727-0.17677 0.88389-23.769 3.4617-63.227 14.36-63.384 13.464z" fill="url(#bf)" fill-rule="evenodd"/>
  <path transform="translate(-138.64 30.505)" d="m160.51 320.56c3.0738-2.375 3.4407-5.2012 11.667-6.7175 41.699 0.69381 110.11 2.0724 110.79 3.9775-2.0079 2.6296-4.5354 2.7084-6.6733 3.6239-38.944-1.6864-77.283-0.95166-115.79-0.88389z" fill="url(#be)" fill-rule="evenodd" opacity=".91304"/>
  <path transform="translate(-138.64 30.505)" d="m101.96 323.46c21.943-2.7119 46.787-4.65 65.315-8.2726-2.5381 1.1206-4.8552 2.6675-6.4449 4.4249-3.5655 3.073-39.247 2.5652-58.87 3.8477z" fill="url(#bd)" fill-rule="evenodd"/>
  <path transform="translate(-138.64 30.505)" d="m256.38 279.72c-4.6132 0.0381-8.7175 0.7884-13.25 0.4375-6.5066 0.43746-31.101 19.64-30.625 19.844 11.493 0.91476 24.871 0.1165 37.812-2.0625 1.3368-1.7152 3.0891-3.3812 5.6562-4.7812 9.6425-4.0927 19.098-8.2335 28.906-11.938-7.0851-0.96184-18.01-1.5375-28.5-1.5z" fill="url(#cu)" fill-rule="evenodd"/>
  <path transform="translate(-138.64 30.505)" d="m241.94 280.34c-4.7379 0.83356-14.607-0.54024-16.16-0.4008-24.56 2.2049-37.874 21.274-36.465 20.62 8.0192 1.7378 14.675 0.74417 21.75 0.59375 0.6236-0.24519 1.3537-0.64362 2.1562-1.125-0.23572-0.01722-0.48458-0.01261-0.71875-0.03125-0.02323-0.00995 0.06531-0.09162 0.15625-0.1875 1.6579-1.7479 21.42-17.033 29.062-19.375l0.0625-0.03125 0.15625-0.0625z" fill="url(#ct)" fill-rule="evenodd"/>
  <path transform="translate(-138.64 30.505)" d="m216.44 299.06c-1.1764 0.81367-2.2603 3.0312-2.7207 3.1289 16.907 0.58949 29.923-0.90352 31.697 0.27207-8.0787 0.73371-34.022 1.382-34.009 0.27207-1.5864-1.9276 5.8466-4.0793 5.0334-3.673z" fill="url(#bc)" fill-rule="evenodd" opacity=".77899"/>
  <path transform="translate(-138.64 30.505)" d="m80.166 324.31c27.555-13.684 67.241-16.833 103.93-22.582 3.4717 0.02062-0.85528 1.389-2.0804 2.0969l26.391-0.27207c-11.68 2.7966-23.273 5.9425-34.826 9.2505l-25.303 4.3532c-21.588 3.1267-44.476 5.3086-68.115 7.1536z" fill="url(#bb)" fill-rule="evenodd"/>
  <path transform="translate(-138.64 30.505)" d="m405.47 297.21c9.4822 0.42125 18.917 3.485 22.243 6.9842l172.17-15.854c-1.2891-1.0463-2.5147-0.88093-4.7808-1.6856-0.67615-0.24009 1.6194-3.1518 0.05627-3.2715-6.9091-0.52941-28.981-1.7983-43.31-1.953-6.9157 1.5278-17.71 4.4138-22.982 4.5141l-123.39 11.266z" fill="url(#cs)" fill-rule="evenodd"/>
  <path transform="translate(-138.64 30.505)" d="m322 369.66-0.125 3.8125c-12.998 2.4816-19.819 6.873-23.406 12.25l29.938 0.28125c-1.5533-0.55512-3.7934-0.01287-4.375-2.1875 1.3266-1.4659 1.7394-2.8743 4.625-3.5312l-0.78125-1.6875c-2.4584-2.3756-4.4752-5.4348-5.875-8.9375z" fill="url(#cr)" fill-rule="evenodd"/>
  <path transform="translate(-138.64 30.505)" d="m363.81 357.91c0.89289 9.5996-1.9101 15.11-5.5938 19.625 7.7618 3.4172 18.306 6.5657 24.625 11.906l-14.031 1.9375-44.438 1.3438 58.094 2.125c7.5077-0.29748 12.382 0.72678 15.906 3.0625 7.6014 2.2655 11.555 6.4534 9.9688 13.531-4.5405 3.3987-6.781 3.5825-9.2812 4.125h-0.03125c-41.014 13.524-86.989 11.257-132.19 10.438 8.5701 13.733 19.85 26.359 23.281 39.625l54.438-2.6875c12.455-3.107 16.426-11.235 22.5-19.25-3.3402 5.6708-4.0376 12.443-10.562 16.75 16.196-2.1295 36.148-3.8292 51.344-11.344 7.2596-12.697 11.521-25.396 16.938-38.094-5.287 8.0581-13.974 23.266-14.219 20.781-0.88857-20.95 10.39-38.578 20.375-56.562-17.951-4.9142-45.557-2.991-53.772-14.845-4.0965 0.17921-9.5651-2.0313-13.353-2.4674z" fill="url(#ba)" fill-rule="evenodd" opacity=".40942"/>
  <path transform="translate(-138.64 30.505)" d="m34.009 336.74c2.6731 2.7929 5.4257 6.222 7.7541 6.2577-0.83482 4.3058-2.8209 7.9207-2.0406 13.196-2.4401 1.1507-4.2619 3.5382-5.9856 6.1217-1.5875-8.8606-3.426-17.771 0.27208-25.575z" fill="url(#az)" fill-rule="evenodd"/>
  <path transform="translate(-138.64 30.505)" d="m45.3 328.72c17.598-3.1864 35.948-8.6268 54.007-13.196-18.691 2.3848-36.74 5.6321-54.007 13.196z" fill="url(#ay)" fill-rule="evenodd"/>
  <path transform="translate(-138.64 30.505)" d="m162.47 334.19-2.0938 0.1875 0.15625 14.625 4.625-3.8125-2.125-11h-0.5625z" fill="url(#cq)" fill-rule="evenodd"/>
  <path transform="translate(-138.64 30.505)" d="m620.53 171.41c-33.385 0.57632-65.691-0.11724-100.34 1.9375-39.375 3.2343-81.503 5.1188-117.84 20.344l76.25-7.4062 60.969-2.4375-1.7188-0.03125h-0.09375c-2.0039-0.17324-4.0146-0.37252-6-0.59375 3.8842-0.2275 7.775-0.4736 11.656-0.6875 22.057 0.3565 44.091 1.0281 65.812 4.3438 8.6915 1.3973 13.54 4.9285 19.594 7.7812 12.87-12.388 33.182-14.585 51.969-15.688-2.9606-0.17019-5.9254-0.3071-8.875-0.4375l15.625-0.625c-21.588-4.3033-43.871-6.6284-67-6.5zm73 7.7812 7.3438 5.1875 49.562 11.875c-0.32743-0.12988-0.64055-0.27692-0.96875-0.40625-18.203-6.8322-36.804-12.499-55.938-16.656z" fill="url(#ax)" fill-rule="evenodd"/>
  <path transform="translate(-138.64 30.505)" d="m84.782 420.04 40.766 1.6518c5.377 13.21 13.583 32.135 21.819 45.345l-8.2589-0.70353c-7.5409-3.4856-19.058-4.3204-30.875-4.9554 0.77867-4.9135 1.9862-11.679 0.65684-17.295-3.5657-6.9259-16.658-17.117-24.109-24.043z" fill="url(#cp)" fill-rule="evenodd"/>
  <path transform="translate(-138.64 30.505)" d="m203.5 425.97-2.4375 1.9062c5.1044 9.0719 7.747 19.642 10.344 30.219-1.179-0.75768-3.321 0.05047-4.5 1.3438l0.96875 7.625c21.76 0.32794 43.521 1.5314 65.281 0.5625l-0.59375-1.3125c-4.4613-6.7669-13.023-22.515-18-38.5l-0.03125-0.125-0.6875-1.4375-50.344-0.28125z" fill="url(#co)" fill-rule="evenodd"/>
  <path transform="translate(-138.64 30.505)" d="m141.21 427.35c-0.08093-1.2454 57.042 0.03206 57.139 0.76954 2.7914 1.3981 2.7336 3.8647 3.6553 5.964l5.3868 32.128c0.24514 0.82288-0.18358 1.5495-1.7315 2.1162l-54.445-1.1543c-1.5391-1.197-3.0782-1.4279-4.6173-5.002-2.0329-11.607-4.981-23.215-5.3868-34.822z" fill="#f2f2f2" fill-rule="evenodd"/>
  <path d="m-47.49084,371.77619c-1.94088-.03849-10.49801,2.69102-10.64518,3.75545 .35298-.08719 3.16369-1.22379 3.53155-1.26027 .73572-.07295 1.45262-.03752 2.16713.09585 .35734.06639.70293.17135 1.05192.28563 .00913.00297.02206-.00501.03119-.00201 .34004.11255.66698.2512.99712.407 .00847.00398.02273-.00601.03119-.00202 .66922.31799 1.31075.74864 1.92716,1.23074 .31791.2484.62555.47666.92626.76507 .00527.00503-.00337.02431.00189.02934 .58366.56179 1.1504,1.19757 1.65692,1.89625 1.79087,2.46374 3.04762,5.73004 3.42392,9.38241 .86012,8.34829-3.21801,15.58703-9.1038,16.17061-.35736.03543-2.57893-.19419-2.93232-.20843 2.57535.98417 9.42801.49381 12.60066-.02641 10.56343-6.63359 11.99222-26.6235-4.3103-32.68523-.06305-.04168-1.09828.15189-1.35531.16602z" fill="url(#cn)" fill-rule="evenodd"/>
  <path transform="matrix(.98696 -.097858 .096418 .93583 -172.07 61.157)" d="m96.25 359.7a10.804 16.161 0 1 1 -21.607 0 10.804 16.161 0 1 1 21.607 0z" fill="#f2f2f2" fill-rule="evenodd" stroke="url(#aw)" stroke-linecap="round" stroke-linejoin="round" stroke-miterlimit="4.2" stroke-width=".125"/>
  <path transform="translate(-138.64 30.505)" d="m97.688 357.41-15.406 0.65625c-4.7682 2.4534 35.035 2.7764 52.812 4.1562-0.56111-1.5159-1.0947-3.0783-1.5312-4.5938l-35.875-0.21875z" fill="#f2f2f2" fill-rule="evenodd" stroke="#000" stroke-width=".125"/>
  <path transform="translate(-138.64 30.505)" d="m45.3 395.51c-9.9967 2.4875-16.12 4.9506-18.501 11.427-2.5357 5.2375 25.484 2.8114 38.226 4.2172l86.384 2.8568c39.269 0.2494 120.23 2.2628 120.87 0.81623-1.1736-2.3253-63.688-1.2697-86.996-2.0406l-35.914-0.95226c-0.33376-0.61142-2.7335-1.1289 0.54415-1.9045 36.413 0.13604 79.933 0.82764 109.24 0.40811 1.7218-1.1737 0.91761-4.2859 9.9307 0.13604l7.346-0.81623c1.1336-0.57654 2.2673-1.1902 3.4009 0 24.304 0.41251 34.916-0.54415 52.374-0.81622-1.1776-2.4908-29.193-1.9052-43.804-2.8568l-144.74-0.40811c4.1322 0.82747 8.667 1.6615 2.0406 2.3126-12.425-0.18138-30.504 0.02722-37.274-0.54415-0.16926-0.5895 9.2932-1.315 11.427-1.9045-16.91 1.7984-36.77 1.5322-57.272 0.81622l-15.508-3.809c-5.125-5.7809-2.3915-5.5525-1.7685-6.9379z" fill="url(#av)" fill-rule="evenodd"/>
  <path transform="translate(-138.64 30.505)" d="m328.12 406.12 11.971 1.6324c4.2825 0.22092 5.6915-0.5844 4.8973-2.1766 1.8168-0.10535 0.02532-3.2844 6.1844 0.30922l4.6985 0.23492 8.7064-0.54414c12.13-1.0203 19.242-2.5408 26.527-4.4212 7.5517-1.2939 13.552 1.8881 14.284 0.68019-4.44-4.9335-8.5704-3.741-10.883-4.6933-17.964 1.388-21.187 2.9028-45.503 6.3329-2.2935 0.32353-4.5537 1.3894-7.2885 1.2477-4.7624-0.24674-17.287-0.25902-13.595 1.3978z" fill="url(#au)" fill-rule="evenodd"/>
  <path transform="translate(-138.64 30.505)" d="m407.23 403.83c0.07814 1.142 5.6e-4 2.6199-0.91383 2.6453-19.617 3.6516-41.733 1.3925-61.756 6.7335-17.909 0.35138-41.531 0.26334-62.429 0.38477-5.919 0.00372-10.231 1.3286 0.09619 1.1543 0 0 77.426 1.5506 78.493-0.38476 0.90991-0.48813 1.5555-2.1765 2.6934-0.38478 14.634-1.9527 36.695-2.1544 44.537-5.8678 1.288-1.1737-0.02637-2.859-0.72145-4.2806z" fill="url(#at)" fill-rule="evenodd"/>
  <path transform="matrix(.74228 -.6061 .92564 1.2205 -455.27 137.82)" d="m339.37 438.32a9.4269 8.465 0 1 1 -18.854 0 9.4269 8.465 0 1 1 18.854 0z" fill="url(#as)" fill-rule="evenodd"/>
  <path transform="matrix(.59885 -.48898 .74678 .98465 -329.18 202.97)" d="m339.37 438.32a9.4269 8.465 0 1 1 -18.854 0 9.4269 8.465 0 1 1 18.854 0z" fill="url(#ar)" fill-rule="evenodd"/>
  <path transform="translate(-138.64 30.505)" d="m334.72 433.84c-0.38105 0.1776-0.75932 0.38318-1.0938 0.65625-3.1162 2.5445-2.802 8.3678 0.6875 12.969 1.5266 2.0129 3.4141 3.4668 5.3125 4.25 0.38105-0.1776 0.72807-0.41443 1.0625-0.6875 3.1162-2.5445 2.8332-8.3366-0.65625-12.938-1.5266-2.0129-3.4141-3.4668-5.3125-4.25z" fill="url(#aq)" fill-rule="evenodd"/>
  <path transform="translate(-138.64 30.505)" d="m332.53 429.91c-2.7769 0.21833-3.3719 0.58888-4.2812 0.9375 3.88-1.259 9.1259 0.94027 12.75 5.7188 4.3252 5.7029 4.7063 12.909 0.84375 16.062-0.59446 0.48539-1.2611 0.81872-1.9688 1.0625 1.4 0.47769 5.6733-1.8654 7.5625-3.75 0.62573-10.611-5.1529-20.207-14.906-20.031z" fill="url(#cm)" fill-rule="evenodd"/>
  <path transform="translate(-138.64 30.505)" d="m744.125,193.875 25.21875,12.4375 9.03125,5.21875h.03125c.25416.04086.51761.11278.8125.1875 .24406.06184.47955.10355.75.1875l.1875.0625 .125.03125c.64348.21063 1.35592.49517 2.125.8125 .06358.02624.12312.03558.1875.0625 .77089.3215 1.59174.71126 2.46875,1.125l.65625.3125c.75314.3631 1.49811.73808 2.3125,1.15625l1.25.65625c.10665.05614.20503.1306.3125.1875 1.10795.58666 2.25372,1.18404 3.4375,1.84375l.15625.09375 1.5625.875c.86336.49093 1.70638.98258 2.59375,1.5 1.43172.83431 2.87534,1.67805 4.34375,2.5625 .1457.08776.29161.16188.4375.25 .47094.28452.93404.58716 1.40625.875 2.05095,1.25019 4.10366,2.5075 6.125,3.78125 1.68649,1.06274 3.32709,2.11761 4.9375,3.15625 .74359.47957 1.53059,1.00011 2.25,1.46875l.53125.34375c2.08675,1.36383 4.06356,2.67713 5.84375,3.875 1.88791,1.27035 3.69652,2.49158 5.09375,3.46875l.0625.03125 .09375.0625c1.56353,1.09563 2.7555,2.00321 3.46875,2.5625h.03125c.32129.25265.61551.51365.71875.625 1.45058.97142 4.31121,11.17116 2.78125,12.40625l.0625.21875-20.1875,3.65625 46.40625-.71875c-32.50138-24.56248-69.00657-46.35308-112.28125-63.40625-1.77703-.66698-3.55895-1.32414-5.34375-1.96875z" fill="url(#cl)" fill-rule="evenodd"/>
  <path transform="translate(-138.64 30.505)" d="m386.31 202.07c26.944-13.69 58.596-10.899 88.113-15.583 1.5801-0.07482 1.5507 0.72823 1.1543 1.7315 38.846 0.245 77.233-2.2703 116.55 0.82589 9.3133 1.065 17.336 4.0655 25.619 6.6772 2.1455 0.96193 0.98117 1.972 0.81764 2.9339l-6.3968 13.227 5.7716-14.044c-4.6473-2.7183-9.5965-4.045-15.198-5.3387-9.1631-1.1935-18.507-2.146-28.213-1.8923-34.053 0.06096-68.524-1.3732-102.22-0.07968-28.729 1.9814-59.281 2.8763-85.227 14.044-0.4835-0.78071-2.7076-1.1553-0.76954-2.501z" fill="url(#ap)" fill-rule="evenodd"/>
  <path transform="matrix(.77494 -.47317 .89186 1.098 -513.52 11.958)" d="m63.16 437.97a8.4006 10.423 0 1 1 -16.801 0 8.4006 10.423 0 1 1 16.801 0z" fill="#bbb" fill-rule="evenodd" stroke="#000" stroke-linecap="round" stroke-linejoin="round" stroke-width=".125"/>
  <path transform="matrix(.4683 -.15924 .53895 .79762 -344.57 125.95)" d="m63.16 437.97a8.4006 10.423 0 1 1 -16.801 0 8.4006 10.423 0 1 1 16.801 0z" fill="#4d4d4d" fill-rule="evenodd" stroke="#000" stroke-linecap="round" stroke-linejoin="round" stroke-width=".125"/>
  <path transform="translate(-138.64 30.505)" d="m54.219 429c-0.41611 1.7093-0.45428 4.0813 0 6.75 0.43567 2.5593 1.2521 4.8964 2.2188 6.7188 1.9139 1.5192 3.7482 2.3107 4.9375 1.9062 2.1715-0.73843 1.4133-5.0672-1.6875-9.6562-1.6545-2.4486-3.6425-4.4682-5.4688-5.7188z" fill="url(#ao)" fill-rule="evenodd" stroke="#000" stroke-linecap="round" stroke-linejoin="round" stroke-width=".08472"/>
  <path transform="translate(-138.64 30.505)" d="m670.94 195.53c-9.6537-0.00203-17.867 0.42264-24.344 0.625-4.0937 1.3888-6.8646 3.3516-9.375 6.7812l-36.062 78.5-0.5625 0.03125v0.03125l39.844-1.0938-0.03125-1.375h-0.3125c-0.41868-23.04 0.11346-46.085-1.5625-69.125-0.13675-3.734 3.4244-6.1537 5.8125-8.125 7.9574-2.2237 68.213-3.1125 103.78 9.5312 5.5259 1.627 6.7276 5.4181 8.6562 8.8438 2.121 17.864 1.9839 52.731 1.0938 53.688l6.4062-0.46875c-1.2508-18.094-0.75686-36.188-3.75-54.281-2.1553-6.9274-5.3467-8.7672-7.9062-10.844-32.216-10.689-60.449-12.714-81.688-12.719zm-36.5 28.688c0.27022 17.48 3.034 51.539 0.8125 52.438-0.27003 0.89804-21.063 0.97429-25.031 0.59375-1.6377 0.14041-1.5549-2.6444-0.53125-5.3125 8.2496-15.91 14.118-32.404 24.75-47.719zm121.81 49.75-0.75 0.03125v0.03125l0.75-0.0625z" fill="#ccc" fill-rule="evenodd"/>
  <path transform="translate(-138.64 30.505)" d="m969.11 313.2c0.36161-1.5809 3.7735-0.61988 5.7201-0.88001 1.2348 10.959-1.973 21.234-8.3601 31.02 1.2542-9.6726 1.9611-19.893 2.64-30.14z" fill="#b3b3b3" fill-rule="evenodd"/>
  <path transform="translate(-138.64 30.505)" d="m756.36 285.2 25.979-0.15557c2.3997 0.61785 1.7811 3.603 0 3.8891h-25.824c-2.0386-0.15556-1.7996-3.4224-0.15557-3.7336z" fill="url(#an)" fill-rule="evenodd"/>
  <path transform="translate(-138.64 30.505)" d="m783.88 286.53c0.20814 1.0364-0.44012 2.231-1.5312 2.4062h-2.0312c1.0026 1.7183-0.42955 1.9572-1.1562 3.0938-1.1863 3.1308 3.3444 2.5801 5.3861 0.91458 1.7209-1.6646 0.52151-5.7977-0.66731-6.4146z" fill="url(#am)" fill-rule="evenodd"/>
  <path transform="translate(-138.64 30.505)" d="m779.28 289.19c-1.7483 0-3.1562 1.5944-3.1562 3.5312s1.4079 3.5 3.1562 3.5c1.3112 0 2.4565-0.89703 2.9375-2.1562-1.9432 0.51838-3.8868 0.14412-3.0625-2.0312 0.63586-0.99446 1.8251-1.2876 1.4375-2.5-0.00238-0.00745 0.0025-0.02374 0-0.03125-0.39527-0.19651-0.85143-0.3125-1.3125-0.3125z" fill="url(#al)" fill-rule="evenodd"/>
  <path transform="translate(-138.64 30.505)" d="m638.52 209.9c1.6759 23.04 1.1723 46.08 1.591 69.12l117.73-5.1265c0.92364 0 1.09-35.627-1.0607-53.74-1.9287-3.4256-3.1361-7.2118-8.6621-8.8388-35.568-12.644-95.811-11.77-103.77-9.5459-2.3881 1.9713-5.9704 4.3977-5.8336 8.1317z" fill="#fff" fill-rule="evenodd" opacity=".75" stroke="#000" stroke-width=".125"/>
  <path transform="translate(-138.64 30.505)" d="m597.71 282.05c0.94033 0.13521 1.9464-0.04546 3.448-0.61188l36.051-78.511c4.8849-6.9849 11.689-9.4087 18.378-10.682 8.7215-0.87506 97.016-0.75732 109.35 21.036 3.3753 6.5708 2.5254 39.901 3.7881 59.852h3.283c-0.80386-48.734-3.498-61.368-7.3236-65.155-18.688-16.931-57.859-19.709-102.53-18.688-14.433-0.28871-23.395 4.6055-28.789 12.879l-35.654 79.88z" fill="#e6e6e6" fill-rule="evenodd" stroke="#000" stroke-width=".125"/>
  <path transform="translate(-138.64 30.505)" d="m591.81 282.67 176.88-9.0751 6.6001 2.2-179.3 8.0301 0.15339-0.70557-4.3334-0.44944z" fill="url(#ck)" fill-rule="evenodd"/>
  <path transform="matrix(1.0394 0 0 1.0176 -164.98 25.639)" d="m668.81 260.4a13.915 15.51 0 1 1 -27.83 0 13.915 15.51 0 1 1 27.83 0z" fill="url(#ak)"/>
  <path transform="translate(-138.64 30.505)" d="m642.41 282.62c0.45857 1.1492 0.05121 1.5655 2.42 1.54l7.9201-13.86c-0.64957-1.4876-0.91121-3.751-3.52-1.32l-6.8201 13.64z" fill="url(#cj)" fill-rule="evenodd"/>
  <path transform="translate(-138.64 30.505)" d="m646.69 247.4 2.8002 8.0116c2.1385-0.1781 4.2857-0.40899 6.2226 0.62226l5.9115-6.9227 2.5668 1.2445c-7.6707-8.4745-13.906-5.3041-17.501-2.9558z" fill="url(#ci)" fill-rule="evenodd"/>
  <path transform="translate(-138.64 30.505)" d="m654.66 244.34c7.8374 0.18429 14.156 7.1843 14.156 15.781s-6.3194 15.565-14.156 15.75c0.11427 0.00267 0.22887 0.03125 0.34375 0.03125 8.3396 0 15.094-7.0691 15.094-15.781s-6.7542-15.781-15.094-15.781h-0.34375z" fill="#ccc"/>
  <path transform="translate(-138.64 30.505)" d="m657.09 261.4c0.02326 1.4837-0.51151 2.8887-1.9209 4.1704l4.9942 7.8859c6.1234-3.2609 7.3631-7.519 7.6066-11.981l-10.68-0.07583z" fill="url(#ch)" fill-rule="evenodd"/>
  <path transform="translate(-138.64 30.505)" d="m634.45 224.22c-10.632 15.314-16.499 31.82-24.749 47.73-1.0236 2.6681-1.1074 5.4437 0.53033 5.3033 3.9679 0.38053 24.759 0.30521 25.029-0.59283 2.2215-0.8981-0.54044-34.96-0.81066-52.44z" fill="#fff" fill-rule="evenodd" opacity=".75" stroke="#000" stroke-width=".125"/>
  <path transform="translate(-138.64 30.505)" d="m49.314 393.47 4.8225 1.089c0.19211-1.3965 0.863-2.4593 1.749-2.6069l19.901-0.59719c7.0447-0.27024 3.9749-3.3334-0.80452-3.4853l-22.09-0.31113c0.45383 1.7112 0.75209 3.4224 0.62226 5.1337l-4.2003 0.77783z" fill="url(#aj)" fill-rule="evenodd"/>
  <path transform="translate(-138.64 30.505)" d="m85.872 390.83 28.002-0.62226c3.2146 7.541-22.986 4.3253-28.002 0.62226z" fill="url(#ai)" fill-rule="evenodd"/>
  <path transform="translate(-138.64 30.505)" d="m128.1 389.55c4.3558-0.62226 11.603 0.97114 11.603 0.97114 0.05621 1.8158-5.8712 2.4349-11.512 3.1113l-0.09113-4.0824z" fill="url(#ah)" fill-rule="evenodd"/>
  <path d="m55.814 421.65c2.2099-0.07173 4.168-0.39531 7.156 0.31113 0.24624 1.0371-0.36793 2.0742-3.4224 3.1113-3.6326 0.76967-4.2275-0.89088-3.7336-3.4224z" fill="url(#ag)" fill-rule="evenodd"/>
  <path d="m102.17 420.71 18.046-0.31113c3.8486 4.3584 3.9297 7.8795 0.31114 10.578l-18.979-1.2445c-13.441-3.0076-16.449-6.0152 0.62226-9.0228z" fill="url(#af)" fill-rule="evenodd" stroke="url(#ae)" stroke-width=".125"/>
  <path transform="translate(-138.64 30.505)" d="m623.82 233.88c5.8809-9.7803 10.158-23.983 13.2-28.6 2.2465 0.05929-1.1158 5.3535-2.97 9.2401 0.60961 1.0037 1.3958 1.8309 0.88001 3.9601-0.76335 0.29502-1.1357-0.38743-2.42 1.21-2.1212 6.2188-4.762 10.359-7.1501 15.51-0.6168 0.02555-1.4652 1.0935-1.54-1.32z" fill="url(#cg)" fill-rule="evenodd"/>
  <path transform="translate(-138.64 30.505)" d="m621.84 238.06 2.2-0.11001-1.21 5.6101-2.42 1.76 0.44 1.98-13.09 28.27 0.77001 1.98 19.36 0.22001 7.8101-0.77001-0.22 1.1c-10.106 2.1575-20.544 2.2273-30.8 1.32-1.6275-0.21517-0.87706-2.1288-0.55001-3.74 2.3568-5.3484 4.5683-10.769 7.4801-15.84 0 0-0.10088 1.8803 0.44001 1.98 1.5353 0.28316 5.675-9.6711 5.8301-10.23 0.31143-1.1223-0.42846-2.8519-1.43-1.65 2.0573-4.5735 2.8042-8.6281 5.3901-11.88z" fill="url(#ad)" fill-rule="evenodd"/>
  <g transform="translate(-138.64 30.505)" fill-rule="evenodd">
   <path d="m326.72 338.94c-4.2173 4.7296-6.875 11.591-6.875 19.219 0 14.258 9.2635 25.844 20.688 25.844h0.125l9.6875-5.3125-6.375-0.3125s3.4117-6.6875 4.6562-6.6875-11.5 0.62499-11.5 0.625l-5.1562 0.78125-0.78125-2.3438 6.25-6.2188 1.375-2.4688 10.438-0.15625 1.7188 1.2188 7.4688 0.15625 0.90625-8.2188h-3.5625l-4.8125 0.75-3.5938-0.28125-2.5-2.5-2.9375 3.0938-8.4062 0.15625s-10.097-2.9389-10.875-3.25l2.1562-3.5938 18.062-0.90625-9.1875-2.1875 10.438-2.1875-17.406-5.2188z" fill="url(#cf)" opacity=".5"/>
   <path transform="matrix(.85829 0 0 .97097 51.194 11.153)" d="m361.22 357.38a24.113 26.602 0 1 1 -48.225 0 24.113 26.602 0 1 1 48.225 0z" fill="url(#ce)" opacity=".5" stroke="#000" stroke-linecap="round" stroke-linejoin="round" stroke-width=".125"/>
   <path d="m340.53 332.34c-1.6503 0-3.2422 0.23131-4.7812 0.6875l-0.78125 0.5c25.669 0.1165 27.122 25.282 20.375 42.656 3.6332-4.6547 5.875-11.025 5.875-18.031 0-14.258-9.2635-25.812-20.688-25.812z" fill="url(#ac)" opacity=".5"/>
   <path d="m326.71875,338.9375c-.11657.13073-.22959.2723-.34375.40625-.14332.16821-.29806.32681-.4375.5-.48371.60024-.94043,1.24914-1.375,1.90625-.01285.01949-.01844.04296-.03125.0625-.39947.60923-.80191,1.25254-1.15625,1.90625-.04414.08143-.08159.16791-.125.25-.13992.26482-.27403.541-.40625.8125-.05141.10555-.10602.20597-.15625.3125-.11868.25176-.23179.49288-.34375.75-.13894.31869-.27788.64215-.40625.96875l-.125.3125c-.043.11323-.08328.22962-.125.34375-.07853.21488-.14484.43827-.21875.65625-.08126.24001-.14319.47511-.21875.71875-.09468.30466-.19567.59613-.28125.90625-.04261.15435-.08468.31309-.125.46875-.06066.2346-.10087.48127-.15625.71875-.02689.11508-.06812.22802-.09375.34375-.03165.14308-.06403.29344-.09375.4375-.07317.35481-.15751.70199-.21875,1.0625-.01064.06247-.02097.12487-.03125.1875-.12712.77643-.21142,1.57504-.28125,2.375-.03329.38141-.07394.77007-.09375,1.15625-.00426.08305.00363.16674 0,.25-.02051.47096-.03125.92894-.03125,1.40625 0,.44556.01336.90371.03125,1.34375s.02718.84722.0625,1.28125c.00083.01031-.00084.02094 0,.03125 .07061.85758.17631,1.73171.3125,2.5625 .55167,3.36187 1.63685,6.47033 3.125,9.21875 .3718.68752.76588,1.36164 1.1875,2 1.05469,1.59479 2.26558,3.01008 3.59375,4.25 .53127.49597 1.08731.97465 1.65625,1.40625 2.27576,1.72639 4.82303,2.9146 7.5625,3.4375 .68487.13072 1.38859.23659 2.09375.28125 .35258.02233.7055.03125 1.0625.03125h.125l9.6875-5.3125-6.375-.3125c0,0 3.41173-6.6875 4.65625-6.6875s-11.50001.62499-11.5.625l-5.15625.78125-.78125-2.34375 6.25-6.21875 1.375-2.46875 10.4375-.15625 1.71875,1.21875 7.46875.15625 .90625-8.21875h-3.5625l-4.8125.75-3.59375-.28125-2.5-2.5-2.9375,3.09375-8.40625.15625c0,0-10.09717-2.93887-10.875-3.25l2.15625-3.59375 18.0625-.90625-9.1875-2.1875 10.4375-2.1875-17.40625-5.21875z" fill="url(#cd)"/>
  </g>
  <g transform="translate(-138.64 30.505)" fill-rule="evenodd">
   <path d="m255.38 421c3.5656-0.18261 4.8424 1.1606 6.5 2.25 6.3708 11.627 12.618 23.316 19.625 34.625 4.5507 3.3796 6.7086 6.0997 4.625 10.625-2.8388 0.91233-10.496 0.57025-12.25-0.25-4.1187-5.5447-15.171-25.182-20.375-44.125-0.15079-1.7205-0.55045-3.6587 1.875-3.125z" fill="#e6e6e6"/>
   <path d="m254.59 420.91-0.71875 0.5625c2.2942 1.0396 5.25 2.9692 7.2725 2.3788 6.1999 12.072 11.172 23.529 18.6 36.215 1.2996-0.8664 6.4373 1.7349 5.2525 3.4062-3.1283 5.154-10.159-4.3788-11.312 4.5 0.06258 0.08625 0.1278 0.20087 0.1875 0.28125 1.7545 0.82025 9.4112 1.1623 12.25 0.25 2.0836-4.5253-0.07432-7.2454-4.625-10.625-7.0072-11.309-13.254-22.998-19.625-34.625-1.6576-1.0894-2.9344-2.4326-6.5-2.25-0.30318-0.06671-0.56035-0.09903-0.78125-0.09375z" fill="url(#ab)"/>
  </g>
  <path d="m-66.643 450.51c5.6942 13.228 9.0993 26.227 17.75 39.75 6.6329 4.9925 14.27 3.2969 17.25 2.875 1.5058-1.2155 1.6437-2.0796 1.5-3.625-9.1067-14.787-18.977-28.046-29.75-39.5-4.8048-1.3237-5.8658-0.46339-6.75 0.5z" fill="#ccc" fill-rule="evenodd"/>
  <path d="m-63.893 449.32c-0.70063 0.00608-1.2241 0.13156-1.625 0.3125-0.15409 0.35525-0.3125 0.7395-0.3125 0.78125l4.4062 0.875c8.1207 11.784 11.869 23.739 17.149 36.091 0.41732 4.0374-0.02942 5.5116-4.305 3.0963 6.5588 4.7107 14.004 3.0715 16.938 2.6562 1.5058-1.2155 1.6437-2.0796 1.5-3.625-9.1067-14.787-18.977-28.046-29.75-39.5-1.8018-0.49637-3.063-0.69563-4-0.6875z" fill="url(#aa)" fill-rule="evenodd"/>
 </g>
</svg>
