<svg width="274" height="75" viewBox="0 0 274 75" fill="none" xmlns="http://www.w3.org/2000/svg">
<path d="M57.6065 61.624C58.7105 61.624 59.5985 62.056 60.2705 62.92C60.9905 63.784 61.3505 64.912 61.3505 66.304C61.3505 68.224 60.4145 69.688 58.5425 70.696C56.9105 71.512 54.9665 72.208 52.7105 72.784C50.5025 73.312 48.4625 73.576 46.5905 73.576C42.6545 73.576 39.2225 72.832 36.2945 71.344C33.3665 69.856 31.1105 67.72 29.5265 64.936C27.9425 62.152 27.1505 58.888 27.1505 55.144C27.1505 51.592 27.8945 48.424 29.3825 45.64C30.9185 42.808 33.0305 40.624 35.7185 39.088C38.4545 37.504 41.5265 36.712 44.9345 36.712C48.2465 36.712 51.1505 37.432 53.6465 38.872C56.1425 40.312 58.0625 42.352 59.4065 44.992C60.7985 47.632 61.4945 50.728 61.4945 54.28C61.4945 55.384 61.2305 56.248 60.7025 56.872C60.2225 57.448 59.5025 57.736 58.5425 57.736H39.5345C39.8705 60.04 40.6145 61.696 41.7665 62.704C42.9185 63.712 44.6225 64.216 46.8785 64.216C48.0785 64.216 49.1825 64.096 50.1905 63.856C51.1985 63.568 52.3265 63.184 53.5745 62.704C54.2945 62.416 54.9905 62.176 55.6625 61.984C56.3825 61.744 57.0305 61.624 57.6065 61.624ZM45.2945 45.352C43.6145 45.352 42.2705 45.904 41.2625 47.008C40.2545 48.064 39.6545 49.624 39.4625 51.688H50.7665C50.4785 47.464 48.6545 45.352 45.2945 45.352ZM74.0068 58.672C70.0228 58.672 68.0308 56.992 68.0308 53.632C68.0308 50.32 70.0228 48.664 74.0068 48.664H87.5428C89.5588 48.664 91.0468 49.096 92.0068 49.96C93.0148 50.824 93.5188 52.048 93.5188 53.632C93.5188 55.216 93.0148 56.464 92.0068 57.376C91.0468 58.24 89.5588 58.672 87.5428 58.672H74.0068ZM124.664 73.648C119.576 73.648 115.112 72.592 111.272 70.48C107.48 68.368 104.528 65.344 102.416 61.408C100.352 57.472 99.3198 52.864 99.3198 47.584C99.3198 42.352 100.352 37.768 102.416 33.832C104.528 29.896 107.48 26.872 111.272 24.76C115.112 22.648 119.576 21.592 124.664 21.592C130.76 21.592 136.112 23.2 140.72 26.416C141.536 26.992 142.112 27.616 142.448 28.288C142.832 28.96 143.024 29.824 143.024 30.88C143.024 32.368 142.592 33.64 141.728 34.696C140.912 35.704 139.904 36.208 138.704 36.208C137.984 36.208 137.336 36.112 136.76 35.92C136.184 35.68 135.512 35.32 134.744 34.84C133.064 33.832 131.48 33.112 129.992 32.68C128.504 32.248 126.968 32.032 125.384 32.032C121.112 32.032 117.92 33.328 115.808 35.92C113.744 38.464 112.712 42.352 112.712 47.584C112.712 52.864 113.744 56.8 115.808 59.392C117.92 61.936 121.112 63.208 125.384 63.208C126.824 63.208 128.216 62.992 129.56 62.56C130.904 62.08 132.632 61.36 134.744 60.4C135.752 59.872 136.496 59.512 136.976 59.32C137.456 59.128 138.032 59.032 138.704 59.032C139.904 59.032 140.912 59.56 141.728 60.616C142.592 61.624 143.024 62.872 143.024 64.36C143.024 65.368 142.832 66.232 142.448 66.952C142.112 67.624 141.536 68.248 140.72 68.824C136.112 72.04 130.76 73.648 124.664 73.648ZM164.334 36.712C169.806 36.712 173.838 38.032 176.43 40.672C179.07 43.264 180.39 47.224 180.39 52.552V67.6C180.39 69.424 179.838 70.864 178.734 71.92C177.678 72.928 176.19 73.432 174.27 73.432C172.59 73.432 171.198 72.952 170.094 71.992C169.038 71.032 168.462 69.736 168.366 68.104C167.694 69.832 166.566 71.176 164.982 72.136C163.398 73.096 161.502 73.576 159.294 73.576C156.846 73.576 154.638 73.096 152.67 72.136C150.702 71.128 149.142 69.76 147.99 68.032C146.886 66.256 146.334 64.264 146.334 62.056C146.334 59.512 146.982 57.496 148.278 56.008C149.622 54.472 151.734 53.368 154.614 52.696C157.494 52.024 161.382 51.688 166.278 51.688H168.222V50.824C168.222 49.144 167.838 47.944 167.07 47.224C166.302 46.456 165.006 46.072 163.182 46.072C161.214 46.072 158.334 46.744 154.542 48.088C153.438 48.472 152.502 48.664 151.734 48.664C150.534 48.664 149.574 48.232 148.854 47.368C148.134 46.504 147.774 45.376 147.774 43.984C147.774 42.928 147.99 42.064 148.422 41.392C148.854 40.72 149.55 40.12 150.51 39.592C152.19 38.728 154.302 38.032 156.846 37.504C159.39 36.976 161.886 36.712 164.334 36.712ZM162.318 65.008C164.046 65.008 165.462 64.408 166.566 63.208C167.67 61.96 168.222 60.376 168.222 58.456V57.592H167.07C163.998 57.592 161.814 57.88 160.518 58.456C159.222 58.984 158.574 59.896 158.574 61.192C158.574 62.296 158.91 63.208 159.582 63.928C160.302 64.648 161.214 65.008 162.318 65.008ZM210.036 36.856C211.668 36.712 212.964 37.096 213.924 38.008C214.884 38.872 215.364 40.168 215.364 41.896C215.364 43.816 214.908 45.208 213.996 46.072C213.132 46.936 211.548 47.488 209.244 47.728L207.084 47.944C204.684 48.232 202.956 49 201.9 50.248C200.892 51.448 200.388 53.104 200.388 55.216V67.528C200.388 69.496 199.764 70.984 198.516 71.992C197.316 72.952 195.804 73.432 193.98 73.432C192.156 73.432 190.62 72.952 189.372 71.992C188.172 70.984 187.572 69.496 187.572 67.528V42.616C187.572 40.792 188.172 39.376 189.372 38.368C190.62 37.36 192.108 36.856 193.836 36.856C195.612 36.856 197.028 37.336 198.084 38.296C199.188 39.256 199.74 40.6 199.74 42.328V43.696C200.508 41.584 201.756 39.952 203.484 38.8C205.26 37.648 207.108 37.024 209.028 36.928L210.036 36.856ZM231.353 73.576C228.137 73.576 225.425 73.336 223.217 72.856C221.009 72.376 219.065 71.608 217.385 70.552C216.713 70.216 216.185 69.64 215.801 68.824C215.417 68.008 215.225 67.096 215.225 66.088C215.225 64.792 215.561 63.736 216.233 62.92C216.953 62.056 217.841 61.624 218.897 61.624C219.617 61.624 220.289 61.72 220.913 61.912C221.537 62.056 222.305 62.32 223.217 62.704C224.753 63.232 226.097 63.64 227.249 63.928C228.449 64.216 229.961 64.36 231.785 64.36C233.081 64.36 234.089 64.192 234.809 63.856C235.577 63.472 235.961 62.944 235.961 62.272C235.961 61.744 235.769 61.336 235.385 61.048C235.049 60.76 234.377 60.496 233.369 60.256C232.361 59.968 230.657 59.584 228.257 59.104C223.985 58.288 220.889 57.064 218.969 55.432C217.097 53.752 216.161 51.4 216.161 48.376C216.161 46.168 216.833 44.176 218.177 42.4C219.569 40.624 221.465 39.232 223.865 38.224C226.265 37.216 228.953 36.712 231.929 36.712C234.089 36.712 236.177 36.976 238.193 37.504C240.257 38.032 242.081 38.776 243.665 39.736C245.153 40.6 245.897 41.992 245.897 43.912C245.897 45.256 245.537 46.384 244.817 47.296C244.097 48.208 243.209 48.664 242.153 48.664C240.905 48.664 239.417 48.256 237.689 47.44C236.537 46.912 235.505 46.528 234.593 46.288C233.729 46 232.697 45.856 231.497 45.856C230.297 45.856 229.361 46.048 228.689 46.432C228.017 46.768 227.681 47.272 227.681 47.944C227.681 48.712 228.137 49.312 229.049 49.744C230.009 50.176 231.881 50.656 234.665 51.184C239.321 52 242.609 53.248 244.529 54.928C246.449 56.56 247.409 58.936 247.409 62.056C247.409 65.56 245.945 68.368 243.017 70.48C240.137 72.544 236.249 73.576 231.353 73.576Z" fill="#FF5361"/>
</svg>
